<?xml version="1.0" encoding="utf-8"?>
<!-- Generator: Adobe Illustrator 22.0.1, SVG Export Plug-In . SVG Version: 6.00 Build 0)  -->
<svg version="1.1" id="Layer_1" xmlns="http://www.w3.org/2000/svg" xmlns:xlink="http://www.w3.org/1999/xlink" x="0px" y="0px"
	 viewBox="0 0 1366 768" style="enable-background:new 0 0 1366 768;" xml:space="preserve">
<style type="text/css">
	.st0{fill:#E5E5E5;}
	.st1{fill:#2F2E41;}
	.st2{fill:#FFFFFF;}
	.st3{fill:#3F3D56;}
	.st4{fill:#FFC80F;}
	.st5{opacity:0.11;fill:#2F2E41;}
	.st6{opacity:0.11;}
	.st7{opacity:0.15;}
	.st8{opacity:0.15;fill:#2F2E41;}
	.st9{fill:#EFB40F;}
</style>
<g>
	<ellipse class="st0" cx="143.9" cy="639.5" rx="94.9" ry="11"/>
	
		<ellipse transform="matrix(0.3596 -0.9331 0.9331 0.3596 -349.4779 529.6214)" class="st1" cx="211.1" cy="519.4" rx="29.4" ry="9.2"/>
	<ellipse class="st1" cx="154.4" cy="563.7" rx="56.6" ry="58.8"/>
	
		<rect x="122.6" y="616.8" transform="matrix(2.799989e-03 -1 1 2.799989e-03 -487.4969 762.6348)" class="st1" width="32" height="17.9"/>
	
		<rect x="158.4" y="616.9" transform="matrix(2.801098e-03 -1 1 2.801098e-03 -451.9801 798.4526)" class="st1" width="32" height="17.9"/>
	
		<ellipse transform="matrix(2.801064e-03 -1 1 2.801064e-03 -498.0042 784.8824)" class="st1" cx="144.5" cy="642.1" rx="5.6" ry="14.9"/>
	
		<ellipse transform="matrix(2.801064e-03 -1 1 2.801064e-03 -461.7405 819.9596)" class="st1" cx="180.3" cy="641.5" rx="5.6" ry="14.9"/>
	<circle class="st2" cx="158.2" cy="548.8" r="20.1"/>
	<circle class="st3" cx="158.2" cy="548.8" r="6.7"/>
	<path class="st4" d="M150.5,524.3c23.5-5.2,39.1-13,34.4-34.2c-4.7-21.3-27.5-34.3-51-29.1c-23.5,5.2-38.7,26.6-34,47.9
		C104.5,530.1,127,529.5,150.5,524.3z"/>
	
		<ellipse transform="matrix(0.4311 -0.9023 0.9023 0.4311 -432.3242 386.7611)" class="st1" cx="90.5" cy="536.2" rx="9.2" ry="29.4"/>
	<path class="st2" d="M159,581.2c16.4,0,31.9-6.8,31.9-1c0,5.8-15.5,21.9-31.9,21.9c-16.4,0-31.2-11.4-31.2-17.2
		C127.8,579,142.6,581.1,159,581.2z"/>
</g>
<path id="Notebook" class="st5" d="M282.8,696.8c0-3.6,1.3-10.4-3.8-11.1c-3.1-0.4-6.4-0.2-9.5-0.3c-3.5,0-6.9-0.1-10.4,0
	c-0.7,0-1.1,0.6-1.1,1.2c-0.2,0.2-0.3,0.4-0.3,0.8c-0.3,11.1-0.4,22.1-0.3,33.2c0,0.7,0.5,1,1,1.1c2.9,2,5.9,4,8.8,6
	c2.1,1.4,4.4,3.3,7.1,2.9c2.2-0.3,3.4-1.9,3.6-3.9c1.6,0,3.3-0.5,4.2-2c1.1-2,0.5-5.2,0.5-7.4C282.8,710.4,282.8,703.6,282.8,696.8z
	 M276.9,695.2c0-0.1,0-0.1-0.1-0.2c-1-2.2-3.7-3.1-5.9-3.9c1.4,0.2,3.1,0.3,4.3,0.9C276.7,692.7,276.9,693.8,276.9,695.2z
	 M273.9,728.3c-2.3,0.5-5.6-2.6-7.3-3.8c-2.3-1.6-4.7-3.2-7-4.8c-0.1-10.4,0-20.8,0.3-31.2c2.2,1,4.4,2,6.7,2.9
	c1.3,0.6,2.6,1.2,3.9,1.7c1.1,0.5,2.6,0.9,3.6,1.6c2.1,1.7,1.3,5.9,1.4,8.2c0.1,2.9,0.1,5.7,0.2,8.6s0.1,5.7,0.2,8.6
	c0,1.4,0.1,2.9,0.1,4.3c0,0.2,0,0.5,0,0.7c0,0.1,0,0.2,0,0.3C275.8,726.8,275.5,728,273.9,728.3z M280.7,696.8c0,4.9,0,9.9-0.1,14.8
	c0,2.5,0,4.9-0.1,7.4c0,1.1,0.1,2.3,0,3.5c-0.1,1.2-0.8,1.7-1.7,1.9c0,0,0-0.1,0-0.1c0.1-8.6,0.2-17.2,0.2-25.9
	c0-2.5,0.8-6.6-1.9-8.1c-1.3-0.7-3.3-0.8-4.8-1.1c-2.3-0.5-4.6-0.9-6.9-1.4c-0.1,0-0.1,0-0.2,0c-0.1,0-0.2-0.1-0.2-0.1
	c-0.1,0-0.1,0-0.2-0.1c3,0,6,0,8.9,0.1c1.3,0,2.6,0.1,3.9,0.1c1.4,0.1,2.4,0.3,2.8,1.8C281,691.8,280.7,694.5,280.7,696.8z"/>
<path id="Notebook_2_" class="st5" d="M1134.8,684.8c0-3.6,1.3-10.4-3.8-11.1c-3.1-0.4-6.4-0.2-9.5-0.3c-3.5,0-6.9-0.1-10.4,0
	c-0.7,0-1.1,0.6-1.1,1.2c-0.2,0.2-0.3,0.4-0.3,0.8c-0.3,11.1-0.4,22.1-0.3,33.2c0,0.7,0.5,1,1,1.1c2.9,2,5.9,4,8.8,6
	c2.1,1.4,4.4,3.3,7.1,2.9c2.2-0.3,3.4-1.9,3.6-3.9c1.6,0,3.3-0.5,4.2-2c1.1-2,0.5-5.2,0.5-7.4
	C1134.8,698.4,1134.8,691.6,1134.8,684.8z M1128.9,683.2c0-0.1,0-0.1-0.1-0.2c-1-2.2-3.7-3.1-5.9-3.9c1.4,0.2,3.1,0.3,4.3,0.9
	C1128.7,680.7,1128.9,681.8,1128.9,683.2z M1125.9,716.3c-2.3,0.5-5.6-2.6-7.3-3.8c-2.3-1.6-4.7-3.2-7-4.8
	c-0.1-10.4,0-20.8,0.3-31.2c2.2,1,4.4,2,6.7,2.9c1.3,0.6,2.6,1.2,3.9,1.7c1.1,0.5,2.6,0.9,3.6,1.6c2.1,1.7,1.3,5.9,1.4,8.2
	c0.1,2.9,0.1,5.7,0.2,8.6c0.1,2.9,0.1,5.7,0.2,8.6c0,1.4,0.1,2.9,0.1,4.3c0,0.2,0,0.5,0,0.7c0,0.1,0,0.2,0,0.3
	C1127.8,714.8,1127.5,716,1125.9,716.3z M1132.7,684.8c0,4.9,0,9.9-0.1,14.8c0,2.5,0,4.9-0.1,7.4c0,1.1,0.1,2.3,0,3.5
	c-0.1,1.2-0.8,1.7-1.7,1.9c0,0,0-0.1,0-0.1c0.1-8.6,0.2-17.2,0.2-25.9c0-2.5,0.8-6.6-1.9-8.1c-1.3-0.7-3.3-0.8-4.8-1.1
	c-2.3-0.5-4.6-0.9-6.9-1.4c-0.1,0-0.1,0-0.2,0c-0.1,0-0.2-0.1-0.2-0.1c-0.1,0-0.1,0-0.2-0.1c3,0,6,0,8.9,0.1c1.3,0,2.6,0.1,3.9,0.1
	c1.4,0.1,2.4,0.3,2.8,1.8C1133,679.8,1132.7,682.5,1132.7,684.8z"/>
<g id="Watch" class="st6">
	<path class="st1" d="M425,617.9c-0.4,0.1-0.7,0.2-1,0.3c-0.3-0.7-0.6-1.3-0.9-2c-0.2-0.5-0.9-0.6-1.3-0.3c-0.5,0.3-0.6,0.8-0.3,1.3
		c0.4,0.9,0.8,1.7,1.2,2.6c0.1,0.2,0.3,0.3,0.5,0.4c0.3,0.2,0.7,0.2,1.1,0.1c0.4-0.2,0.9-0.3,1.4-0.4c0.5-0.1,0.8-0.7,0.7-1.2
		C426.1,618.1,425.6,617.8,425,617.9z"/>
	<path class="st1" d="M442.4,601c-1.1-1.2-2.7-1-4-0.1c-1.9,1.3-3.5,3.1-5.2,4.7c-0.2,0.2-0.3,0.4-0.3,0.5c-0.1,0-0.3,0.1-0.4,0.3
		c-1.9,2.1-3.9,4-6,5.9c-0.1,0.1-0.2,0.2-0.3,0.4c-1.8-0.5-3.9-0.6-5.6-0.3c-0.6,0.1-0.8,0.6-0.7,1.1c-2.5,2-4.4,5.3-3.6,8.5
		c0.1,0.3,0.2,0.6,0.3,0.9c-3.3,3.9-6.9,7.4-10.9,10.6c-0.2,0.2-0.3,0.4-0.3,0.5c-0.9,1-1,2.5-0.1,3.6c1,1.3,2.9,1.4,4.3,0.8
		c2.2-0.9,3.9-3.2,5.5-4.8c2.2-2.1,4.3-4.3,6.5-6.4c0.3-0.2,0.3-0.5,0.3-0.8c1.5,0.3,3,0.2,4.1-0.2c3.5-1.2,5.4-5.1,4.9-8.6
		c0,0,0.1,0,0.1-0.1c2.1-2.2,4.3-4.3,6.6-6.3c0.2-0.2,0.3-0.5,0.3-0.7c0.1,0,0.2-0.1,0.3-0.2C440.5,608.3,445.4,604.2,442.4,601z
		 M435.1,611c-0.7-0.8-1.4-1.5-2.1-2.2c0.3-0.3,0.6-0.6,0.9-1c0.7,0.8,1.5,1.5,2.2,2.2C435.7,610.4,435.4,610.7,435.1,611z
		 M414.2,631.9c-1,1-2,2-3,2.9c-0.5,0.5-1.1,1.1-1.7,1.5c-0.3,0.1-0.6,0.2-0.8,0.4c-1.2,0.4-1.7-0.1-1.5-1.6
		c0.2-0.2,0.3-0.3,0.3-0.5c3.8-3.1,7.3-6.5,10.5-10.2c0.7,0.6,1.5,1.1,2.4,1.4C418.3,627.9,416.3,629.9,414.2,631.9z M425.1,624.5
		c-2.6,0.6-6.8-0.9-6.8-3.9c0-2.7,1.8-5.1,4.1-6.3c0.1,0,0.1-0.1,0.2-0.1c2.9-0.1,6.4,0.8,6.7,4.1
		C429.4,621,427.9,623.8,425.1,624.5z M430.4,615.5c-0.5-0.9-1.3-1.6-2.2-2.1c1.2-1.1,2.3-2.1,3.4-3.3c0.7,0.7,1.4,1.4,2.1,2.1
		C432.6,613.4,431.5,614.5,430.4,615.5z M437.3,608.6c-0.7-0.7-1.4-1.4-2.1-2.1c0.7-0.7,1.4-1.3,2.1-2c0.4-0.4,0.9-0.9,1.3-1.3
		c0.7-0.6,1.2-1.3,2.1-0.7C442.8,603.8,438.9,607.2,437.3,608.6z"/>
	<path class="st1" d="M417.1,626.4c-1.2,0-1.2,1.9,0,1.9C418.3,628.3,418.3,626.4,417.1,626.4z"/>
	<path class="st1" d="M414.4,629c-1.2,0-1.2,1.9,0,1.9C415.6,631,415.6,629,414.4,629z"/>
</g>
<g id="Computer" class="st7">
	<path class="st1" d="M1117,457.3c-0.3-11.2-0.6-22.3-1-33.5c0-0.8-0.9-1.1-1.5-0.8c-0.2-0.2-0.4-0.3-0.7-0.3
		c-16.6,0.1-33.3,0.2-49.9,0.3c-0.5,0-0.8,0.3-0.9,0.7c-0.1,0.1-0.2,0.3-0.2,0.6c-0.2,11.2-0.2,22.5,0,33.7c0,0.2,0.1,0.4,0.2,0.5
		c0,0.5,0.3,0.9,0.9,0.9c7,0.3,14,0.4,21,0.4c0,0,0,0,0,0.1c0,0.5,0.2,1.4-0.1,1.9c-0.3,0.4-1.1,0.7-1.5,1c-1,0.7-2.1,1.4-3.2,2
		c0,0,0,0,0,0c0,0,0,0,0,0c-0.3,0.2-0.4,0.6-0.3,0.9c0.1,0.4,0.3,0.7,0.7,0.8c0.1,0,0.2,0,0.3,0c6.5-0.1,13,0.1,19.4,0
		c1.1,0,1.2-1.6,0.3-1.9c-0.1-0.1-0.1-0.2-0.3-0.2c-1-0.6-2-1.2-3-1.8c-0.4-0.2-1-0.5-1.3-0.8c-0.5-0.5-0.4-1.1-0.4-1.8
		c0-0.1,0-0.2,0-0.3c6.8-0.1,13.5-0.4,20.3-0.7c0.7,0,1-0.6,0.9-1.2C1117,457.7,1117,457.5,1117,457.3z M1114.1,424.6
		c0.3,8.8,0.5,17.7,0.8,26.5c-16.7,0.3-33.4,0.4-50.1,0.2c-0.1-8.8-0.1-17.6,0.1-26.4c16.3-0.1,32.7-0.2,49-0.2
		C1114,424.6,1114.1,424.6,1114.1,424.6z M1064.8,457.5c0-1.4,0-2.8,0-4.2c16.7,0.2,33.4,0.2,50.2-0.2c0,1.4,0.1,2.7,0.1,4.1
		C1098.3,458,1081.6,458.1,1064.8,457.5z M1095.1,463.5c0.6,0.4,1.1,0.8,1.7,1.1c-4.3,0-8.5-0.1-12.8-0.1c0.5-0.3,0.9-0.6,1.4-0.9
		c0.6-0.3,1.1-0.6,1.4-1.3c0.3-0.7,0.1-1.7,0.1-2.5c0,0,0,0,0-0.1c2.3,0,4.5,0,6.8-0.1c0,0.1,0,0.1,0,0.2
		C1093.6,461.4,1093.9,462.6,1095.1,463.5z"/>
	<path class="st1" d="M1090.3,454.5c-1.2,0-1.2,1.9,0,1.9S1091.4,454.5,1090.3,454.5z"/>
</g>
<path id="Paper_2_" class="st5" d="M1263.6,690.5c-0.1,0-0.3,0-0.4,0.1c-0.1,0-0.2,0-0.3,0.1c-1.4,0.7-2.4,1.8-3.5,2.8
	c-1.3,1.2-2.5,2.5-3.7,3.7c-0.2,0.2-0.3,0.4-0.3,0.7c-0.1,0.1-0.2,0.3-0.2,0.6c0.1,6.4,0,12.8-0.2,19.2c0,0.6,0.4,0.9,0.8,0.9
	c0.1,0.1,0.3,0.2,0.5,0.2c11.3,0,22.5,0.1,33.8,0.1c0.5,0,0.8-0.3,0.9-0.7c0.1-0.1,0.2-0.3,0.2-0.6c0.1-8.6,0.2-17.2,0.3-25.9
	c0-0.3-0.1-0.5-0.3-0.7c-0.1-0.4-0.4-0.7-0.9-0.7C1281.4,690.1,1272.5,690.2,1263.6,690.5z M1260.4,695.2c0.6-0.6,1.3-1.3,2-1.9
	c0,1.3,0,2.7,0,4c-1.4,0-2.7,0-4.1,0C1258.9,696.6,1259.6,695.9,1260.4,695.2z M1257.1,699.3c2,0,4,0,6,0.1c0.1,0,0.3,0,0.4-0.1
	c0.4-0.1,0.8-0.4,0.8-0.9c0-2,0-4,0-6c8.4-0.2,16.9-0.3,25.3-0.1c-0.1,8.2-0.2,16.4-0.3,24.6c-10.8,0-21.5-0.1-32.3-0.1
	C1257.1,710.9,1257.2,705.1,1257.1,699.3z"/>
<g id="Mouse_and_Mousepad" class="st7">
	<path class="st1" d="M1295.7,414.9c-0.1-0.4-0.4-0.7-0.9-0.6c-3.2,0.2-6.4,0.8-9.4,1.8c-0.3,0.1-0.5,0.3-0.6,0.6
		c-0.1,0.2-0.1,0.4-0.1,0.6c0.4,2,0.7,4,1.1,6.1c0.3,1.5,0.4,3.3,1.1,4.7c1.2,2.4,4.1,3,6.6,2.5
		C1300.9,429.1,1297.5,419.6,1295.7,414.9C1295.7,414.9,1295.7,414.9,1295.7,414.9z M1292.9,428.6c-1.4,0.2-3.3,0.1-4.1-1.1
		c-0.6-0.8-0.6-1.9-0.8-2.8c-0.4-2.3-0.8-4.7-1.2-7c0.9-0.3,1.8-0.5,2.7-0.7c0.3,1.4,0.7,2.9,1,4.3c0.3,1.2,2.2,0.7,1.9-0.5
		c-0.4-1.4-0.7-2.8-1-4.2c0.9-0.2,1.9-0.3,2.8-0.3C1295.7,420.1,1298.5,427.6,1292.9,428.6z"/>
	<path class="st1" d="M1303.9,426.4c-0.1-2.6-0.3-5.1-0.4-7.7c-0.1-1.8,0-3.6-0.2-5.3c-0.2-1.3-0.4-2.7-1.4-3.6
		c-1.2-1-2.9-0.8-4.4-1c-3.8-0.1-7.6,0-11.4,0c-3.4,0-7.3-0.7-10.5,0.9c-3,1.5-2.2,6.1-2.4,8.9c-0.2,4.5-0.3,8.9,0,13.4
		c0.2,3.2,1.8,4.2,4.9,4.5c4.4,0.3,9,0.2,13.4,0.1c2,0,4.1-0.1,6.1-0.1c1.5,0,3.7,0.3,5-0.6C1305,434,1304,428.8,1303.9,426.4z
		 M1302.1,431.5c-0.1,1.3,0,2.4-1.5,2.8c-1.4,0.3-3.1,0.1-4.6,0.2c-1.8,0.1-3.5,0.1-5.3,0.1c-3.2,0-6.3,0-9.5,0
		c-1.4,0-3.4,0.2-4.8-0.3c-1.8-0.6-1.4-3-1.5-4.6c-0.1-3.3-0.1-6.6,0.1-10c0.1-1.7,0.2-3.3,0.2-5c0-0.6-0.1-1.7,0.2-2.3
		c0.5-0.9,1.8-1.5,2.8-1.6c1.7-0.3,3.6-0.1,5.3-0.1c1.4,0,2.8,0,4.2,0c3.2,0,6.4-0.1,9.7,0c1.3,0.1,2.9-0.2,3.6,1.3
		c0.5,1.1,0.5,2.7,0.5,3.9c0.1,3,0.2,6,0.4,8.9c0.1,1.5,0.2,3,0.2,4.5C1302.1,430.1,1302.1,430.8,1302.1,431.5z"/>
</g>
<g id="Coffee_1_" class="st6">
	<path class="st1" d="M63.2,525.8c-0.8-4.2-4-6.6-8-6.5c0-0.3,0-0.7-0.1-1c0-0.4-0.2-0.6-0.5-0.8c-0.5-1.3-2.3-1.7-3.5-2.1
		c-2.2-0.6-4.5-0.4-6.8-0.4c-0.9,0-1.9,0.1-2.8,0.2c0-0.8,0.5-1.7,0.8-2.6c0.3-1,0.3-1.9-0.2-2.8c-0.6-1.1-2.3-0.1-1.7,1
		c0.7,1.2-0.8,2.9-0.9,4.2c0,0.2,0,0.4,0,0.6c-0.9,0.2-1.8,0.4-2.7,0.7c-1.2,0.4-2.9,1-2.9,2.6c0,0,0,0,0,0.1
		c-0.1,0.1-0.1,0.3-0.1,0.4c0.1,4.3,0.2,8.5,0.3,12.8c0.1,3.2,1,5.3,4.2,6.4c3.3,1.1,7.2,0.6,10.5,0.1c2.8-0.4,5.9-1,6.5-4
		c0.2-0.2,0.3-0.4,0.3-0.7c0-0.3,0-0.6,0-0.9C59.9,532.8,64.1,530.7,63.2,525.8z M55.5,524.5c1.1,0,2.3,0.6,2.5,1.9
		c0.1,1.3-1.2,1.6-2.3,1.6C55.6,526.9,55.5,525.7,55.5,524.5z M40.3,517.4c0.2,0.2,0.3,0.4,0.5,0.6c0.7,0.7,1.8-0.1,1.6-0.9
		c0.9-0.1,1.7-0.1,1.9-0.1c1.2,0,2.5,0,3.7,0c0.9,0,3.1,0,3.8,0.7c0.5,0.5,0.3,0.9-0.1,1.1c-0.1-0.1-0.2-0.1-0.3-0.1
		c-4.5-0.7-9-0.6-13.6,0.2c-0.3,0.1-0.5,0.2-0.6,0.4c-0.5-0.1-0.9-0.2-0.9-0.3C36.2,518.2,38.3,517.7,40.3,517.4z M53.5,534.3
		c-0.3,2.7-6.1,2.7-8,2.8c-2.6,0.2-5.9,0.5-8-1.2c-2-1.6-1.3-5.6-1.3-7.9c-0.1-2.4-0.1-4.8-0.2-7.2c0.4,0.1,0.9,0.2,1.3,0.2
		c2.4,0.4,5,0.3,7.4,0.3c1.6,0,6.2,0.3,8.7-0.9c0.2,4.4,0.5,8.9,0.5,13.3C53.7,533.9,53.6,534.1,53.5,534.3z M55.7,531.1
		c0-0.4,0-0.8,0-1.1c2.1-0.1,4.3-1,4.2-3.5c-0.1-2.3-2.3-4-4.5-3.9c0-0.5,0-0.9-0.1-1.4c2.7,0,4.7,1.2,5.7,4
		C62.5,529.2,59.1,530.9,55.7,531.1z"/>
	<path class="st1" d="M46.5,512.5c0.3,1.2,2.1,0.7,1.9-0.5c-0.4-1.9,1.1-3.3,1.2-5.2c0.1-1.6-0.5-3.1-1.4-4.4c-0.7-1-2.4-0.1-1.7,1
		c1.3,1.9,1.3,3.4,0.3,5.4C46.4,510.1,46.3,511.2,46.5,512.5z"/>
</g>
<path id="Pencil_2_" class="st8" d="M1131.1,508.7c0-0.1,0-0.1-0.1-0.2c-4.5-7.3-9.1-14.7-14.8-21.2c-0.2-0.2-0.3-0.3-0.5-0.3
	c-0.2-0.1-0.5-0.2-0.8-0.1c-2.5,1-5.5,2.4-6.8,4.9c-0.2,0.4-0.1,0.7,0.1,1c-0.1,0.2,0,0.4,0.1,0.7c4.4,6.5,8.9,13,13.5,19.3
	c0,0.1,0.1,0.1,0.1,0.1c0.1,0.2,0.2,0.3,0.4,0.4c2.5,1.4,4.9,2.6,7.5,3.8c0.6,0.4,1.5,0.2,1.5-0.7c0-2.3,0-4.6,0-7
	C1131.5,509.1,1131.4,508.9,1131.1,508.7z M1124.4,512.3c0.2-0.4,0.4-0.7,0.6-1.1c0.4,0,0.9,0,1.3,0.1c0.4,0.1,0.9,0,1.1-0.4
	c0.1-0.3,0.3-0.6,0.4-1c0.6,0.1,1.1,0.2,1.7,0.3c0,0,0,0,0,0c0,0.6,0,1.1,0,1.7c0,0,0,0,0,0c-1,0.3-1.8,1-2.3,1.9
	C1126.3,513.3,1125.3,512.8,1124.4,512.3z M1110.1,492.5c1.1-1.7,3.3-2.8,5.1-3.6c0.8,0.9,1.5,1.8,2.3,2.8c-2.1,0.9-3.9,2.1-5.4,3.7
	C1111.4,494.5,1110.7,493.5,1110.1,492.5C1110.1,492.5,1110.1,492.5,1110.1,492.5z M1113.1,497.1c1.5-1.7,3.4-2.9,5.5-3.7
	c0,0,0,0,0.1,0c3.6,4.7,6.7,9.7,9.8,14.7c-0.3-0.1-0.6-0.1-0.9-0.2c-0.3-0.1-0.6,0-0.8,0.2c-0.3,0.1-0.5,0.3-0.6,0.7
	c-0.1,0.2-0.1,0.4-0.2,0.6c-0.5,0-1,0-1.4-0.1c-0.2,0-0.4,0.1-0.5,0.2c-0.2,0.1-0.3,0.2-0.4,0.4c-0.2,0.4-0.4,0.8-0.7,1.1
	C1119.6,506.4,1116.3,501.8,1113.1,497.1z"/>
<path id="Headphones_2_" class="st8" d="M1190.6,376.5c-0.1-1.7-0.1-4-1.1-5.5c-1-1.3-2.5-1-4-1.1c0.1-0.1,0.2-0.3,0.2-0.6
	c-0.1-1.1-0.2-2.1-0.4-3.2c0.4-0.1,0.7-0.2,1.1-0.4c0.3-0.1,0.5-0.3,0.6-0.6c0.2-0.1,0.4-0.4,0.4-0.8c-0.1-7.9-8.4-12.8-15.6-12.3
	c-6.3,0.4-15.6,6.2-14,13.7c0.1,0.5,0.5,0.7,0.9,0.7c0.1,0.1,0.3,0.2,0.4,0.3c0.1,0,0.1,0,0.2,0c0,0,0,0.1,0,0.1
	c-0.3,1.6-0.4,3.2-0.3,4.8c0,0.1,0,0.1,0,0.2c-1.1,0-2.2,0.2-3,1.2c-1.1,1.4-0.5,3.7-0.3,5.4c0.2,1.9,0.1,4.3,0.8,6.1
	c0.6,1.7,2.2,1.5,3.7,1.6c0,0,0,0,0,0.1c0,0.6,0.4,0.9,0.9,0.9c0.2,0.1,0.4,0.2,0.6,0.3c1.7,0.1,3.8,0,4.5-1.9
	c0.4-0.9,0.2-1.9,0.2-2.8c0-1.3,0-2.7,0-4c0-1.9,0.2-4.7-1.1-6.3c-1-1.3-2.8-1.7-4.4-1.2c0,0,0,0,0,0c0-1.2,0-2.5,0.2-3.7
	c0-0.2,0-0.3,0-0.4c0.2,0,0.5,0,0.8-0.1c0.2,0,0.3-0.1,0.4-0.2c0.4,0.1,0.9-0.1,1.1-0.7c1.1-3.9,4.7-7,8.9-7.1
	c4.2-0.1,7.9,2.8,9.2,6.7c0,0.1,0.1,0.2,0.1,0.3c0.1,0.3,0.4,0.6,0.8,0.6c0.3,0,0.7,0,1,0c0,0,0,0,0,0.1c0.2,0.9,0.3,1.9,0.4,2.9
	c0,0,0,0,0,0.1c-0.1,0-0.2,0.1-0.2,0.2c-1.5,0.2-3.2-0.1-4.1,1.4c-0.4,0.7-0.3,1.4-0.3,2.2c0,1.5,0.1,2.9,0.3,4.4
	c0.2,1.8,0,4.7,1.1,6.4c1.1,1.8,3.4,1.6,5.1,1.3c0.6-0.1,0.7-0.5,0.7-1c0.1-0.1,0.1-0.2,0.1-0.3c1.4-0.2,3.4-0.3,4.1-1.7
	C1191.3,380.8,1190.7,378.1,1190.6,376.5z M1158.8,384.2c-0.6-0.3-0.7-1.5-0.8-2.1c-0.2-1.1-0.3-2.2-0.4-3.3
	c-0.1-0.9-0.2-1.8-0.3-2.7c-0.1-1.6,1-2.5,2.5-2.1c0,0,0,0,0,0c0.2,3.5,0.3,6.8,0.2,10.2C1159.7,384.2,1159,384.3,1158.8,384.2z
	 M1172.1,357c-4.9,0.1-9.1,3.5-10.6,8.1c-0.1,0-0.2,0-0.3,0c-0.6,0.1-1.1,0-1.7-0.2c-0.4-3.2,2.4-6.3,4.8-8.1c2.3-1.7,5.2-2.7,8-2.8
	c5.9-0.1,12.7,3.7,13,10.1c-0.8,0.3-1.6,0.4-2.4,0.4C1181.3,360.1,1177,356.9,1172.1,357z M1188.8,380.6c-0.1,1.2-1.3,1.3-2.3,1.4
	c-0.1-3.4-0.5-6.8-1.1-10.2c1.3,0.1,2.4,0,3,1.6c0.4,1.2,0.3,2.8,0.3,4C1188.8,378.5,1189,379.6,1188.8,380.6z"/>
<path class="st4" d="M4.7,0H0v723h1366c0,0,0-32,0-280C213.1,951.2,32,197,4.7,0z"/>
<path class="st9" d="M862.8,768.1l503.2-44.8V442.9C398.1,975.9,89.7,474.1-1.2,212.8v258.7l26.4,296.6H862.8z"/>
<path class="st9" d="M1362.7,768.1c-1.6-18.2-7.2-80.3-24.2-272C453.8,983.9,119.5,607.8-1.2,339.7v428.4H1362.7z"/>
<path class="st9" d="M1366,768.1V509.6C383.5,1048.3,83,518-1.2,262.1v217.2l25.7,288.8H1366z"/>
<g>
	
		<ellipse transform="matrix(0.9331 -0.3596 0.3596 0.9331 -88.6671 447.2552)" class="st1" cx="1157.7" cy="461.9" rx="7.6" ry="24.1"/>
	<circle class="st1" cx="1202.4" cy="498.2" r="48.3"/>
	
		<rect x="1159.7" y="536.3" transform="matrix(0.7488 -0.6628 0.6628 0.7488 -65.7068 913.8942)" class="st1" width="26.3" height="14.7"/>
	<g>
		
			<rect x="1192.5" y="540.2" transform="matrix(0.5841 -0.8117 0.8117 0.5841 57.068 1206.3535)" class="st1" width="26.3" height="14.7"/>
		
			<ellipse transform="matrix(0.5841 -0.8117 0.8117 0.5841 45.6142 1200.1179)" class="st1" cx="1193.9" cy="555.5" rx="4.6" ry="12.2"/>
	</g>
	
		<ellipse transform="matrix(0.7488 -0.6628 0.6628 0.7488 -72.1461 906.6003)" class="st1" cx="1160" cy="548.5" rx="4.6" ry="12.2"/>
	<circle class="st2" cx="1201.1" cy="486" r="16.5"/>
	<circle class="st3" cx="1201.1" cy="486" r="5.5"/>
	<path class="st9" d="M1249,453.2c3.8-17.5-8.7-35.1-27.9-39.3c-19.3-4.2-38,6.5-41.9,23.9s8.9,23.9,28.2,28.1
		C1226.7,470.2,1245.2,470.7,1249,453.2z"/>
	
		<ellipse transform="matrix(0.9023 -0.4311 0.4311 0.9023 -82.3062 588.1531)" class="st1" cx="1256.6" cy="475.7" rx="24.1" ry="7.6"/>
	<path class="st2" d="M1226.1,515.6c0,4.7-12.1,14.1-25.6,14.1c-13.5,0-26.2-13.2-26.2-17.9c0-4.7,12.7,0.9,26.1,0.8
		C1213.9,512.6,1226.1,510.8,1226.1,515.6z"/>
</g>
</svg>
