<?xml version="1.0" encoding="utf-8"?>
<!-- Generator: Adobe Illustrator 22.0.1, SVG Export Plug-In . SVG Version: 6.00 Build 0)  -->
<svg version="1.1" id="Layer_1" xmlns="http://www.w3.org/2000/svg" xmlns:xlink="http://www.w3.org/1999/xlink" x="0px" y="0px"
	 viewBox="0 0 1366 768" style="enable-background:new 0 0 1366 768;" xml:space="preserve">
<style type="text/css">
	.st0{fill:#E5E5E5;}
	.st1{fill:#2F2E41;}
	.st2{fill:#FFFFFF;}
	.st3{fill:#3F3D56;}
	.st4{fill:#FFC80F;}
	.st5{fill:#FF3333;}
	.st6{fill:none;stroke:#2F2E41;stroke-miterlimit:10;}
	.st7{fill:none;stroke:#2F2E41;stroke-miterlimit:10;stroke-dasharray:11.9368,14.921;}
	.st8{opacity:0.11;fill:#2F2E41;}
	.st9{fill:#231F20;}
	.st10{opacity:0.11;}
</style>
<g>
	<ellipse class="st0" cx="143.9" cy="639.5" rx="94.9" ry="11"/>
	
		<ellipse transform="matrix(0.3596 -0.9331 0.9331 0.3596 -349.4779 529.6214)" class="st1" cx="211.1" cy="519.4" rx="29.4" ry="9.2"/>
	<circle class="st1" cx="156.7" cy="563.7" r="58.8"/>
	
		<rect x="122.6" y="616.8" transform="matrix(2.799989e-03 -1 1 2.799989e-03 -487.4969 762.6348)" class="st1" width="32" height="17.9"/>
	
		<rect x="158.4" y="616.9" transform="matrix(2.801098e-03 -1 1 2.801098e-03 -451.9801 798.4526)" class="st1" width="32" height="17.9"/>
	
		<ellipse transform="matrix(2.801064e-03 -1 1 2.801064e-03 -498.0042 784.8824)" class="st1" cx="144.5" cy="642.1" rx="5.6" ry="14.9"/>
	
		<ellipse transform="matrix(2.801064e-03 -1 1 2.801064e-03 -461.7405 819.9596)" class="st1" cx="180.3" cy="641.5" rx="5.6" ry="14.9"/>
	<circle class="st2" cx="158.2" cy="548.8" r="20.1"/>
	<circle class="st3" cx="158.2" cy="548.8" r="6.7"/>
	<path class="st4" d="M150.5,524.3c23.5-5.2,39.1-13,34.4-34.2c-4.7-21.3-27.5-34.3-51-29.1c-23.5,5.2-38.7,26.6-34,47.9
		C104.5,530.1,127,529.5,150.5,524.3z"/>
	
		<ellipse transform="matrix(0.4311 -0.9023 0.9023 0.4311 -432.3242 386.7611)" class="st1" cx="90.5" cy="536.2" rx="9.2" ry="29.4"/>
	<path class="st2" d="M159,581.2c16.4,0,31.9-6.8,31.9-1c0,5.8-15.5,21.9-31.9,21.9c-16.4,0-31.2-11.4-31.2-17.2
		C127.8,579,142.6,581.1,159,581.2z"/>
</g>
<g>
	<ellipse class="st0" cx="979.9" cy="641.5" rx="77.9" ry="9"/>
	
		<ellipse transform="matrix(0.9331 -0.3596 0.3596 0.9331 -133.3884 368.878)" class="st1" cx="924.7" cy="542.9" rx="7.6" ry="24.1"/>
	<circle class="st1" cx="969.4" cy="579.2" r="48.3"/>
	
		<rect x="976.8" y="617.1" transform="matrix(1 -2.799989e-03 2.799989e-03 1 -1.7607 2.7581)" class="st1" width="14.7" height="26.3"/>
	
		<rect x="947.5" y="617.1" transform="matrix(1 -2.801098e-03 2.801098e-03 1 -1.7617 2.6771)" class="st1" width="14.7" height="26.3"/>
	
		<ellipse transform="matrix(1 -2.801064e-03 2.801064e-03 1 -1.799 2.7457)" class="st1" cx="979.3" cy="643.6" rx="12.2" ry="4.6"/>
	<ellipse transform="matrix(1 -2.801064e-03 2.801064e-03 1 -1.7977 2.6635)" class="st1" cx="950" cy="643.1" rx="12.2" ry="4.6"/>
	<circle class="st2" cx="968.1" cy="567" r="16.5"/>
	<circle class="st3" cx="968.1" cy="567" r="5.5"/>
	<path class="st5" d="M1016,534.2c3.8-17.5-8.7-35.1-27.9-39.3c-19.3-4.2-38,6.5-41.9,23.9c-3.8,17.5,8.9,23.9,28.2,28.1
		C993.7,551.2,1012.2,551.7,1016,534.2z"/>
	
		<ellipse transform="matrix(0.9023 -0.4311 0.4311 0.9023 -139.9805 495.6283)" class="st1" cx="1023.6" cy="556.7" rx="24.1" ry="7.6"/>
	<path class="st2" d="M993.1,596.6c0,4.7-12.1,14.1-25.6,14.1s-26.2-13.2-26.2-17.9c0-4.7,12.7,0.9,26.1,0.8
		C980.9,593.6,993.1,591.8,993.1,596.6z"/>
</g>
<g>
	<g>
		<path class="st6" d="M195.5,491.5c0,0,1.7-1.2,5-3.3"/>
		<path class="st7" d="M213.5,480.8c33.6-18.1,113.1-52.8,227-51.3c170.7,2.2,305.5,106.1,463.6,125.6"/>
		<path class="st6" d="M911.5,555.9c2,0.2,4,0.4,6,0.6"/>
	</g>
</g>
<path id="Notebook" class="st8" d="M282.8,696.8c0-3.6,1.3-10.4-3.8-11.1c-3.1-0.4-6.4-0.2-9.5-0.3c-3.5,0-6.9-0.1-10.4,0
	c-0.7,0-1.1,0.6-1.1,1.2c-0.2,0.2-0.3,0.4-0.3,0.8c-0.3,11.1-0.4,22.1-0.3,33.2c0,0.7,0.5,1,1,1.1c2.9,2,5.9,4,8.8,6
	c2.1,1.4,4.4,3.3,7.1,2.9c2.2-0.3,3.4-1.9,3.6-3.9c1.6,0,3.3-0.5,4.2-2c1.1-2,0.5-5.2,0.5-7.4C282.8,710.4,282.8,703.6,282.8,696.8z
	 M276.9,695.2c0-0.1,0-0.1-0.1-0.2c-1-2.2-3.7-3.1-5.9-3.9c1.4,0.2,3.1,0.3,4.3,0.9C276.7,692.7,276.9,693.8,276.9,695.2z
	 M273.9,728.3c-2.3,0.5-5.6-2.6-7.3-3.8c-2.3-1.6-4.7-3.2-7-4.8c-0.1-10.4,0-20.8,0.3-31.2c2.2,1,4.4,2,6.7,2.9
	c1.3,0.6,2.6,1.2,3.9,1.7c1.1,0.5,2.6,0.9,3.6,1.6c2.1,1.7,1.3,5.9,1.4,8.2c0.1,2.9,0.1,5.7,0.2,8.6s0.1,5.7,0.2,8.6
	c0,1.4,0.1,2.9,0.1,4.3c0,0.2,0,0.5,0,0.7c0,0.1,0,0.2,0,0.3C275.8,726.8,275.5,728,273.9,728.3z M280.7,696.8c0,4.9,0,9.9-0.1,14.8
	c0,2.5,0,4.9-0.1,7.4c0,1.1,0.1,2.3,0,3.5c-0.1,1.2-0.8,1.7-1.7,1.9c0,0,0-0.1,0-0.1c0.1-8.6,0.2-17.2,0.2-25.9
	c0-2.5,0.8-6.6-1.9-8.1c-1.3-0.7-3.3-0.8-4.8-1.1c-2.3-0.5-4.6-0.9-6.9-1.4c-0.1,0-0.1,0-0.2,0c-0.1,0-0.2-0.1-0.2-0.1
	c-0.1,0-0.1,0-0.2-0.1c3,0,6,0,8.9,0.1c1.3,0,2.6,0.1,3.9,0.1c1.4,0.1,2.4,0.3,2.8,1.8C281,691.8,280.7,694.5,280.7,696.8z"/>
<path id="Notebook_1_" class="st8" d="M869.8,95.8c0-3.6,1.3-10.4-3.8-11.1c-3.1-0.4-6.4-0.2-9.5-0.3c-3.5,0-6.9-0.1-10.4,0
	c-0.7,0-1.1,0.6-1.1,1.2c-0.2,0.2-0.3,0.4-0.3,0.8c-0.3,11.1-0.4,22.1-0.3,33.2c0,0.7,0.5,1,1,1.1c2.9,2,5.9,4,8.8,6
	c2.1,1.4,4.4,3.3,7.1,2.9c2.2-0.3,3.4-1.9,3.6-3.9c1.6,0,3.3-0.5,4.2-2c1.1-2,0.5-5.2,0.5-7.4C869.8,109.4,869.8,102.6,869.8,95.8z
	 M863.9,94.2c0-0.1,0-0.1-0.1-0.2c-1-2.2-3.7-3.1-5.9-3.9c1.4,0.2,3.1,0.3,4.3,0.9C863.7,91.7,863.9,92.8,863.9,94.2z M860.9,127.3
	c-2.3,0.5-5.6-2.6-7.3-3.8c-2.3-1.6-4.7-3.2-7-4.8c-0.1-10.4,0-20.8,0.3-31.2c2.2,1,4.4,2,6.7,2.9c1.3,0.6,2.6,1.2,3.9,1.7
	c1.1,0.5,2.6,0.9,3.6,1.6c2.1,1.7,1.3,5.9,1.4,8.2c0.1,2.9,0.1,5.7,0.2,8.6s0.1,5.7,0.2,8.6c0,1.4,0.1,2.9,0.1,4.3
	c0,0.2,0,0.5,0,0.7c0,0.1,0,0.2,0,0.3C862.8,125.8,862.5,127,860.9,127.3z M867.7,95.8c0,4.9,0,9.9-0.1,14.8c0,2.5,0,4.9-0.1,7.4
	c0,1.1,0.1,2.3,0,3.5c-0.1,1.2-0.8,1.7-1.7,1.9c0,0,0-0.1,0-0.1c0.1-8.6,0.2-17.2,0.2-25.9c0-2.5,0.8-6.6-1.9-8.1
	c-1.3-0.7-3.3-0.8-4.8-1.1c-2.3-0.5-4.6-0.9-6.9-1.4c-0.1,0-0.1,0-0.2,0c-0.1,0-0.2-0.1-0.2-0.1c-0.1,0-0.1,0-0.2-0.1
	c3,0,6,0,8.9,0.1c1.3,0,2.6,0.1,3.9,0.1c1.4,0.1,2.4,0.3,2.8,1.8C868,90.8,867.7,93.5,867.7,95.8z"/>
<path id="Notebook_2_" class="st8" d="M1134.8,684.8c0-3.6,1.3-10.4-3.8-11.1c-3.1-0.4-6.4-0.2-9.5-0.3c-3.5,0-6.9-0.1-10.4,0
	c-0.7,0-1.1,0.6-1.1,1.2c-0.2,0.2-0.3,0.4-0.3,0.8c-0.3,11.1-0.4,22.1-0.3,33.2c0,0.7,0.5,1,1,1.1c2.9,2,5.9,4,8.8,6
	c2.1,1.4,4.4,3.3,7.1,2.9c2.2-0.3,3.4-1.9,3.6-3.9c1.6,0,3.3-0.5,4.2-2c1.1-2,0.5-5.2,0.5-7.4
	C1134.8,698.4,1134.8,691.6,1134.8,684.8z M1128.9,683.2c0-0.1,0-0.1-0.1-0.2c-1-2.2-3.7-3.1-5.9-3.9c1.4,0.2,3.1,0.3,4.3,0.9
	C1128.7,680.7,1128.9,681.8,1128.9,683.2z M1125.9,716.3c-2.3,0.5-5.6-2.6-7.3-3.8c-2.3-1.6-4.7-3.2-7-4.8
	c-0.1-10.4,0-20.8,0.3-31.2c2.2,1,4.4,2,6.7,2.9c1.3,0.6,2.6,1.2,3.9,1.7c1.1,0.5,2.6,0.9,3.6,1.6c2.1,1.7,1.3,5.9,1.4,8.2
	c0.1,2.9,0.1,5.7,0.2,8.6c0.1,2.9,0.1,5.7,0.2,8.6c0,1.4,0.1,2.9,0.1,4.3c0,0.2,0,0.5,0,0.7c0,0.1,0,0.2,0,0.3
	C1127.8,714.8,1127.5,716,1125.9,716.3z M1132.7,684.8c0,4.9,0,9.9-0.1,14.8c0,2.5,0,4.9-0.1,7.4c0,1.1,0.1,2.3,0,3.5
	c-0.1,1.2-0.8,1.7-1.7,1.9c0,0,0-0.1,0-0.1c0.1-8.6,0.2-17.2,0.2-25.9c0-2.5,0.8-6.6-1.9-8.1c-1.3-0.7-3.3-0.8-4.8-1.1
	c-2.3-0.5-4.6-0.9-6.9-1.4c-0.1,0-0.1,0-0.2,0c-0.1,0-0.2-0.1-0.2-0.1c-0.1,0-0.1,0-0.2-0.1c3,0,6,0,8.9,0.1c1.3,0,2.6,0.1,3.9,0.1
	c1.4,0.1,2.4,0.3,2.8,1.8C1133,679.8,1132.7,682.5,1132.7,684.8z"/>
<g id="Keyboard">
	<path class="st9" d="M867.4,582c-0.1-0.7-0.5-1.2-1.1-1.3c-0.2-0.4-0.6-0.7-1.2-0.6c-25.7,0.8-51.3,1.5-77,2.3
		c-0.9,0-1.3,0.6-1.4,1.3c-0.4,0.2-0.7,0.6-0.7,1.2c0,12.4,0.3,24.7,0.9,37.1c0,0.8,0.6,1.3,1.3,1.4c0.2,0.4,0.6,0.7,1.3,0.7
		c26.1-0.8,52.2-1.9,78.3-3.2c0.2,0,0.4-0.1,0.6-0.1c0.8,0.2,1.8-0.3,1.8-1.4C869.5,606.8,868.6,594.4,867.4,582z M789,585.3
		c25.2-0.8,50.3-1.5,75.5-2.3c1.1,11.6,2,23.2,2.5,34.8c-25.7,1.3-51.4,2.3-77.1,3.2C789.3,609.1,789,597.2,789,585.3z"/>
	<path class="st9" d="M793.2,590.5c0.7,0,1.4,0,2.2-0.1c0.8,0,1.5-0.7,1.5-1.5c0-0.8-0.7-1.5-1.5-1.5c-0.7,0-1.4,0-2.2,0.1
		c-0.8,0-1.5,0.7-1.5,1.5C791.7,589.8,792.3,590.5,793.2,590.5z"/>
	<path class="st9" d="M801.6,590.2c0.6,0,1.1,0,1.7-0.1c0.8,0,1.5-0.7,1.5-1.5c0-0.8-0.7-1.5-1.5-1.5c-0.6,0-1.1,0-1.7,0.1
		c-0.8,0-1.5,0.7-1.5,1.5C800.1,589.5,800.7,590.3,801.6,590.2z"/>
	<path class="st9" d="M808.8,590c0.5,0,1,0,1.5,0c0.8,0,1.5-0.7,1.5-1.5c0-0.8-0.7-1.5-1.5-1.5c-0.5,0-1,0-1.5,0
		c-0.8,0-1.5,0.7-1.5,1.5C807.3,589.3,808,590,808.8,590z"/>
	<path class="st9" d="M815.7,589.9c0.6,0,1.3,0,1.9-0.1c0.8,0,1.5-0.7,1.5-1.5c0-0.8-0.7-1.5-1.5-1.5c-0.6,0-1.3,0-1.9,0.1
		c-0.8,0-1.5,0.7-1.5,1.5C814.2,589.1,814.8,589.9,815.7,589.9z"/>
	<path class="st9" d="M823.7,589.7c0.5,0,1.1-0.1,1.6-0.1c0.8-0.1,1.5-0.7,1.5-1.5c0-0.8-0.7-1.6-1.5-1.5c-0.5,0-1.1,0.1-1.6,0.1
		c-0.8,0.1-1.5,0.7-1.5,1.5C822.2,589,822.9,589.8,823.7,589.7z"/>
	<path class="st9" d="M830.3,589.6c0.6-0.1,1.2-0.1,1.8-0.2c0.8-0.1,1.5-0.6,1.5-1.5c0-0.7-0.7-1.6-1.5-1.5
		c-0.6,0.1-1.2,0.1-1.8,0.2c-0.8,0.1-1.5,0.6-1.5,1.5C828.9,588.8,829.5,589.7,830.3,589.6z"/>
	<path class="st9" d="M837.9,589.3c0.5-0.1,1.1-0.1,1.6-0.2c0.4,0,0.8-0.1,1.1-0.4c0.3-0.3,0.5-0.7,0.4-1.1c0-0.7-0.7-1.6-1.5-1.5
		c-0.5,0.1-1.1,0.1-1.6,0.2c-0.4,0-0.8,0.1-1.1,0.4c-0.3,0.3-0.5,0.7-0.4,1.1C836.5,588.6,837.1,589.4,837.9,589.3z"/>
	<path class="st9" d="M844.5,586c-0.8,0-1.5,0.7-1.5,1.5c0,0.8,0.7,1.5,1.5,1.5c0.8,0,1.6-0.1,2.4-0.3c0.8-0.1,1.3-1.1,1.1-1.9
		c-0.3-0.8-1-1.2-1.9-1.1"/>
	<path class="st9" d="M852,588.7c0.5-0.1,1.1-0.1,1.6,0c0.8,0,1.5-0.7,1.5-1.5c0-0.9-0.7-1.5-1.5-1.5c-0.6,0-1.1,0-1.6,0
		c-0.8,0.1-1.5,0.6-1.5,1.5C850.5,587.9,851.2,588.8,852,588.7z"/>
	<path class="st9" d="M858.9,588.4c0.9-0.1,1.8-0.2,2.7-0.2c0.8,0,1.5-0.7,1.5-1.5c0-0.8-0.7-1.5-1.5-1.5c-0.9,0-1.8,0.1-2.7,0.2
		c-0.8,0.1-1.5,0.6-1.5,1.5C857.4,587.6,858.1,588.5,858.9,588.4z"/>
	<path class="st9" d="M793.1,596.5c1.8,0,1.8-3,0-3C791.3,593.5,791.3,596.5,793.1,596.5z"/>
	<path class="st9" d="M798.5,595.9c1.8,0,1.8-3,0-3C796.7,592.8,796.7,595.9,798.5,595.9z"/>
	<path class="st9" d="M804.5,595.7c2.4,0,2.4-3,0-3C802.7,592.7,802.7,595.7,804.5,595.7z"/>
	<path class="st9" d="M811.1,595.5c1.8,0,1.8-3,0-3C809.3,592.5,809.3,595.5,811.1,595.5z"/>
	<path class="st9" d="M817.2,592.2c-1.8,0-1.8,3,0,3S819,592.2,817.2,592.2z"/>
	<path class="st9" d="M823.2,595.1c1.8,0,1.8-3,0-3C821.4,592.1,821.4,595.1,823.2,595.1z"/>
	<path class="st9" d="M829.2,594.6c1.8,0,1.8-3,0-3S827.4,594.6,829.2,594.6z"/>
	<path class="st9" d="M835.2,591.6c-1.8,0-1.8,3,0,3C837.6,594.6,837.6,591.6,835.2,591.6z"/>
	<path class="st9" d="M841.9,594.3c1.8,0,1.8-3,0-3S840,594.3,841.9,594.3z"/>
	<path class="st9" d="M847.9,593.9c1.8,0,1.8-3,0-3S846.1,593.9,847.9,593.9z"/>
	<path class="st9" d="M853.3,590.7c-1.8,0-1.8,3,0,3C855.7,593.7,855.7,590.7,853.3,590.7z"/>
	<path class="st9" d="M863.3,591.9c0-0.8-0.7-1.5-1.5-1.5c-0.9,0-1.8,0.1-2.7,0.1c-0.8,0-1.5,0.7-1.5,1.5c0,0.8,0.7,1.5,1.5,1.5
		c0.9,0,1.8-0.1,2.7-0.1C862.6,593.4,863.3,592.7,863.3,591.9z"/>
	<path class="st9" d="M792.5,601.8c1.3-0.1,2.6-0.1,3.9-0.2c1.9-0.1,1.9-3.1,0-3c-1.3,0.1-2.6,0.1-3.9,0.2
		C790.5,598.8,790.5,601.9,792.5,601.8z"/>
	<path class="st9" d="M792.3,607.3c2-0.1,4.1-0.2,6.1-0.3c1.9-0.1,1.9-3.1,0-3c-2,0.1-4.1,0.2-6.1,0.3
		C790.4,604.4,790.3,607.4,792.3,607.3z"/>
	<path class="st9" d="M800.3,609.5c-2.7,0.2-5.4,0.4-8.1,0.4c-1.9,0-1.9,3,0,3c2.7,0,5.4-0.1,8.1-0.4
		C802.2,612.3,802.3,609.3,800.3,609.5z"/>
	<path class="st9" d="M793.1,615.4c-1.8,0-1.8,3,0,3C794.9,618.4,794.9,615.4,793.1,615.4z"/>
	<path class="st9" d="M798.5,615c-1.8,0-1.8,3,0,3C800.3,618,800.3,615,798.5,615z"/>
	<path class="st9" d="M803.3,614.6c-1.8,0-1.8,3,0,3C805.1,617.6,805.1,614.6,803.3,614.6z"/>
	<path class="st9" d="M809.7,614.6c-0.5,0-1.1,0-1.6,0c-0.8,0-1.5,0.7-1.5,1.5c0,0.8,0.7,1.5,1.5,1.5c0.5,0,1.1,0,1.6,0
		c0.8,0,1.5-0.7,1.5-1.5C811.2,615.3,810.5,614.6,809.7,614.6z"/>
	<path class="st9" d="M834.3,616.1c1.9-0.1,1.9-3.1,0-3c-6.4,0.4-12.8,0.7-19.2,1.1c-1.9,0.1-1.9,3.1,0,3"/>
	<path class="st9" d="M842.7,612.8c-1,0.1-2,0.2-3,0.2c-1.9,0-1.9,3,0,3c1,0,2,0,3-0.2c0.8-0.1,1.5-0.6,1.5-1.5
		C844.2,613.5,843.5,612.7,842.7,612.8z"/>
	<path class="st9" d="M847.9,612.7c-1.8,0-1.8,3,0,3S849.7,612.7,847.9,612.7z"/>
	<path class="st9" d="M853.3,612.5c-1.8,0-1.8,3,0,3C855.1,615.6,855.1,612.5,853.3,612.5z"/>
	<path class="st9" d="M858.1,612.2c-1.8,0-1.8,3,0,3C860.5,615.2,860.5,612.2,858.1,612.2z"/>
	<path class="st9" d="M863.5,612.2c-2.4,0-2.4,3,0,3C865.3,615.2,865.3,612.2,863.5,612.2z"/>
	<path class="st9" d="M802.1,597.8c-1.8,0-1.8,3,0,3S803.9,597.8,802.1,597.8z"/>
	<path class="st9" d="M806.9,600.7c1.8,0,1.8-3,0-3S805.1,600.7,806.9,600.7z"/>
	<path class="st9" d="M812.3,600.5c1.8,0,1.8-3,0-3C809.9,597.5,809.9,600.5,812.3,600.5z"/>
	<path class="st9" d="M817.2,597.2c-2.4,0-2.4,3,0,3C819,600.2,819,597.2,817.2,597.2z"/>
	<path class="st9" d="M822.6,600.1c1.8,0,1.8-3,0-3C820.2,597.1,820.2,600.1,822.6,600.1z"/>
	<path class="st9" d="M828,599.9c1.8,0,1.8-3,0-3C826.2,596.9,826.2,599.9,828,599.9z"/>
	<path class="st9" d="M834,596.8c-2.4,0-2.4,3,0,3C835.8,599.8,835.8,596.8,834,596.8z"/>
	<path class="st9" d="M839.4,596.6c-1.8,0-1.8,3,0,3S841.3,596.6,839.4,596.6z"/>
	<path class="st9" d="M844.9,599.1c1.8,0,1.8-3,0-3S843.1,599.1,844.9,599.1z"/>
	<path class="st9" d="M850.3,598.9c1.8,0,1.8-3,0-3S848.5,598.9,850.3,598.9z"/>
	<path class="st9" d="M855.7,598.6c1.8,0,1.8-3,0-3C853.9,595.6,853.9,598.6,855.7,598.6z"/>
	<path class="st9" d="M861.1,595.4c-1.8,0-1.8,3,0,3C862.9,598.4,862.9,595.4,861.1,595.4z"/>
	<path class="st9" d="M803.9,606.5c1.8,0,1.8-3,0-3S802.1,606.5,803.9,606.5z"/>
	<path class="st9" d="M809.3,603.4c-1.8,0-1.8,3,0,3S811.1,603.4,809.3,603.4z"/>
	<path class="st9" d="M814.8,603.2c-2.4,0-2.4,3,0,3C816.6,606.2,816.6,603.2,814.8,603.2z"/>
	<path class="st9" d="M819.6,605.4c2.4,0,2.4-3,0-3C817.8,602.4,817.8,605.4,819.6,605.4z"/>
	<path class="st9" d="M825.6,602.2c-2.4,0-2.4,3,0,3C827.4,605.2,827.4,602.2,825.6,602.2z"/>
	<path class="st9" d="M830.4,602.1c-1.8,0-1.8,3,0,3C832.2,605.1,832.2,602.1,830.4,602.1z"/>
	<path class="st9" d="M835.2,601.9c-1.8,0-1.8,3,0,3S837,601.9,835.2,601.9z"/>
	<path class="st9" d="M840.6,604.7c1.8,0,1.8-3,0-3C838.8,601.6,838.8,604.7,840.6,604.7z"/>
	<path class="st9" d="M846.1,601.1c-1.8,0-1.8,3,0,3C847.9,604.2,847.9,601.1,846.1,601.1z"/>
	<path class="st9" d="M851.5,600.8c-1.8,0-1.8,3,0,3C853.3,603.8,853.3,600.8,851.5,600.8z"/>
	<path class="st9" d="M861.1,600.1c-1.4,0-2.8,0-4.2,0.1c-1.9,0-1.9,3,0,3c1.4,0,2.8,0,4.2-0.1C863.1,603.1,863.1,600.1,861.1,600.1
		z"/>
	<path class="st9" d="M805.7,608.7c-1.8,0-1.8,3,0,3C807.5,611.8,807.5,608.7,805.7,608.7z"/>
	<path class="st9" d="M811.1,608.6c-1.8,0-1.8,3,0,3C812.9,611.6,812.9,608.6,811.1,608.6z"/>
	<path class="st9" d="M816.6,608.4c-1.8,0-1.8,3,0,3C819,611.4,819,608.4,816.6,608.4z"/>
	<path class="st9" d="M822,607.9c-1.8,0-1.8,3,0,3S823.8,607.9,822,607.9z"/>
	<path class="st9" d="M828,610.6c2.4,0,2.4-3,0-3C826.2,607.6,826.2,610.6,828,610.6z"/>
	<path class="st9" d="M832.8,610.3c2.4,0,2.4-3,0-3C831,607.3,831,610.3,832.8,610.3z"/>
	<path class="st9" d="M838.2,607c-1.8,0-1.8,3,0,3C840,610,840,607,838.2,607z"/>
	<path class="st9" d="M844.3,606.5c-2.4,0-2.4,3,0,3C846.1,609.5,846.1,606.5,844.3,606.5z"/>
	<path class="st9" d="M849.7,606.3c-1.8,0-1.8,3,0,3S851.5,606.3,849.7,606.3z"/>
	<path class="st9" d="M861.8,605.7c-2.2,0-4.4,0.1-6.6,0.3c-1.9,0.2-1.9,3.2,0,3c2.2-0.2,4.4-0.3,6.6-0.3
		C863.7,608.7,863.7,605.7,861.8,605.7z"/>
</g>
<g>
	<path class="st9" d="M309.7,530.3c2.9-1.9,4.7-5,4.4-8.4c3.6-1.4,5.6-4.9,6.2-8.9c0.6-4-0.5-8.3-4.3-9.9c1-6.2-5.7-12.8-12-11.3
		c-3-5.2-11-9.5-16.2-6.5c-3.1-5.3-10.7-6.2-15.1-1.7c-3.8-1.5-7.9-1.9-11.7,0c-3.4,1.7-5.7,5.2-5.7,8.9c-3.7-0.5-7.7,1.1-10.6,3.4
		c-2.2,1.8-3.6,5.1-2.5,7.6c-4.2,1.1-7.8,4.2-8.1,9c-0.4,4.9,3.4,8.8,8,8.9c-0.9,3.7,0.1,7.6,3.3,10.1c3.6,2.8,8.6,2.7,12.9,1.5
		c5.3,5.1,13.3,5.1,18.8,0.3c6.2,5.2,16.2,5.9,20-2.1C301.2,532.2,305.8,532.7,309.7,530.3z M278.3,529.4c-0.8-0.8-1.8-0.6-2.5,0
		c-0.2,0.1-0.5,0.2-0.7,0.5c-4.6,4.7-11.4,4.2-15.5-0.8c-0.9-1.1-2.2-0.6-2.8,0.4c-2.5,0.7-5.3,1-7.8-0.1c-3.2-1.3-4.5-4.9-3.1-8
		c0.6-1.3-0.3-2.4-1.3-2.8c-0.4-0.6-1.1-1.1-2-0.9c-3.6,0.6-5.6-3.2-4.6-6.3c1.1-3.2,4.4-4.5,7.5-4.6c1.3,0,1.9-1.1,1.8-2.1
		c0.3-0.8,0.1-1.6-0.8-2.1c-3.1-1.4,1.1-4.3,2.5-5.1c2.3-1.2,5-2.2,7.4-0.8c1.8,1,3.4-1.1,2.6-2.6c0.1-0.2,0.1-0.4,0.1-0.7
		c-0.7-6.9,6.7-8.5,11.9-6.6c0.4,1.3,2.5,2,3.5,0.4c2.8-4.6,8.8-3.6,10.6,0.9c-0.1,0.5,0.1,1,0.4,1.4c0.7,1.7,3.4,1.1,3.6-0.7
		c2-1.9,5.7-0.4,7.7,0.7c2.1,1.1,3.8,2.7,4.5,5c0.4,1.4,1.9,1.6,2.8,1c4.5-1.6,9.7,3.5,7.9,8c-0.4,1.1,0.2,1.9,1.1,2.1
		c0.2,0.2,0.5,0.4,0.9,0.5c5.5,1.3,2.8,11.8-2.1,12.3c-1.7,0.2-2.2,2.1-1.5,3.2c0.6,3-1.9,5.4-4.6,6.1c-3.2,0.9-6.6-0.1-9.7-0.9
		c-1.6-0.4-2.6,1.1-2.3,2.3C290.8,536.1,282.4,533.6,278.3,529.4z"/>
	<path class="st9" d="M315.2,532.9c-0.5-0.8-1.5-1.4-2.6-0.9c-3.8,1.7-7.1,5.4-6,9.8c1,3.9,5.2,5.8,9,5.6c4.1-0.2,6.6-3.3,6.5-7.3
		C322,536.2,319.4,532.3,315.2,532.9z M318.2,541.7c-0.6,2-2.7,2.2-4.4,1.8c-2-0.4-3.8-1.6-3.5-3.8c0.2-1.9,1.8-3.2,3.4-4
		c0.4,0.7,1.1,1.2,2.1,1C318.1,536.1,318.7,540.1,318.2,541.7z"/>
	<path class="st9" d="M309,548.9c-0.2-0.1-0.4-0.1-0.6-0.1c-0.2,0-0.4,0-0.6,0.1c-2.5,0.4-4.5,2.6-4.6,5.1c-0.1,2.8,2.3,5,5,5
		c2.7,0,5.1-1.9,5.2-4.7C313.5,551.6,311.6,549.4,309,548.9z M308.3,555.2c-1.8-0.1-1.4-2.6,0.2-2.7c0.7,0.1,1.2,1,1.2,1.6
		C309.7,555,309,555.3,308.3,555.2z"/>
</g>
<g id="Watch" class="st10">
	<path class="st1" d="M425,617.9c-0.4,0.1-0.7,0.2-1,0.3c-0.3-0.7-0.6-1.3-0.9-2c-0.2-0.5-0.9-0.6-1.3-0.3c-0.5,0.3-0.6,0.8-0.3,1.3
		c0.4,0.9,0.8,1.7,1.2,2.6c0.1,0.2,0.3,0.3,0.5,0.4c0.3,0.2,0.7,0.2,1.1,0.1c0.4-0.2,0.9-0.3,1.4-0.4c0.5-0.1,0.8-0.7,0.7-1.2
		C426.1,618.1,425.6,617.8,425,617.9z"/>
	<path class="st1" d="M442.4,601c-1.1-1.2-2.7-1-4-0.1c-1.9,1.3-3.5,3.1-5.2,4.7c-0.2,0.2-0.3,0.4-0.3,0.5c-0.1,0-0.3,0.1-0.4,0.3
		c-1.9,2.1-3.9,4-6,5.9c-0.1,0.1-0.2,0.2-0.3,0.4c-1.8-0.5-3.9-0.6-5.6-0.3c-0.6,0.1-0.8,0.6-0.7,1.1c-2.5,2-4.4,5.3-3.6,8.5
		c0.1,0.3,0.2,0.6,0.3,0.9c-3.3,3.9-6.9,7.4-10.9,10.6c-0.2,0.2-0.3,0.4-0.3,0.5c-0.9,1-1,2.5-0.1,3.6c1,1.3,2.9,1.4,4.3,0.8
		c2.2-0.9,3.9-3.2,5.5-4.8c2.2-2.1,4.3-4.3,6.5-6.4c0.3-0.2,0.3-0.5,0.3-0.8c1.5,0.3,3,0.2,4.1-0.2c3.5-1.2,5.4-5.1,4.9-8.6
		c0,0,0.1,0,0.1-0.1c2.1-2.2,4.3-4.3,6.6-6.3c0.2-0.2,0.3-0.5,0.3-0.7c0.1,0,0.2-0.1,0.3-0.2C440.5,608.3,445.4,604.2,442.4,601z
		 M435.1,611c-0.7-0.8-1.4-1.5-2.1-2.2c0.3-0.3,0.6-0.6,0.9-1c0.7,0.8,1.5,1.5,2.2,2.2C435.7,610.4,435.4,610.7,435.1,611z
		 M414.2,631.9c-1,1-2,2-3,2.9c-0.5,0.5-1.1,1.1-1.7,1.5c-0.3,0.1-0.6,0.2-0.8,0.4c-1.2,0.4-1.7-0.1-1.5-1.6
		c0.2-0.2,0.3-0.3,0.3-0.5c3.8-3.1,7.3-6.5,10.5-10.2c0.7,0.6,1.5,1.1,2.4,1.4C418.3,627.9,416.3,629.9,414.2,631.9z M425.1,624.5
		c-2.6,0.6-6.8-0.9-6.8-3.9c0-2.7,1.8-5.1,4.1-6.3c0.1,0,0.1-0.1,0.2-0.1c2.9-0.1,6.4,0.8,6.7,4.1
		C429.4,621,427.9,623.8,425.1,624.5z M430.4,615.5c-0.5-0.9-1.3-1.6-2.2-2.1c1.2-1.1,2.3-2.1,3.4-3.3c0.7,0.7,1.4,1.4,2.1,2.1
		C432.6,613.4,431.5,614.5,430.4,615.5z M437.3,608.6c-0.7-0.7-1.4-1.4-2.1-2.1c0.7-0.7,1.4-1.3,2.1-2c0.4-0.4,0.9-0.9,1.3-1.3
		c0.7-0.6,1.2-1.3,2.1-0.7C442.8,603.8,438.9,607.2,437.3,608.6z"/>
	<path class="st1" d="M417.1,626.4c-1.2,0-1.2,1.9,0,1.9C418.3,628.3,418.3,626.4,417.1,626.4z"/>
	<path class="st1" d="M414.4,629c-1.2,0-1.2,1.9,0,1.9C415.6,631,415.6,629,414.4,629z"/>
</g>
<path id="Headphones" class="st8" d="M488.6,482.8c-0.1-1.7-0.1-4-1.1-5.5c-1-1.3-2.5-1-4-1.1c0.1-0.1,0.2-0.3,0.2-0.6
	c-0.1-1.1-0.2-2.1-0.4-3.2c0.4-0.1,0.7-0.2,1.1-0.4c0.3-0.1,0.5-0.3,0.6-0.6c0.2-0.1,0.4-0.4,0.4-0.8c-0.1-7.9-8.4-12.8-15.6-12.3
	c-6.3,0.4-15.6,6.2-14,13.7c0.1,0.5,0.5,0.7,0.9,0.7c0.1,0.1,0.3,0.2,0.4,0.3c0.1,0,0.1,0,0.2,0c0,0,0,0.1,0,0.1
	c-0.3,1.6-0.4,3.2-0.3,4.8c0,0.1,0,0.1,0,0.2c-1.1,0-2.2,0.2-3,1.2c-1.1,1.4-0.5,3.7-0.3,5.4c0.2,1.9,0.1,4.3,0.8,6.1
	c0.6,1.7,2.2,1.5,3.7,1.6c0,0,0,0,0,0.1c0,0.6,0.4,0.9,0.9,0.9c0.2,0.1,0.4,0.2,0.6,0.3c1.7,0.1,3.8,0,4.5-1.9
	c0.4-0.9,0.2-1.9,0.2-2.8c0-1.3,0-2.7,0-4c0-1.9,0.2-4.7-1.1-6.3c-1-1.3-2.8-1.7-4.4-1.2c0,0,0,0,0,0c0-1.2,0-2.5,0.2-3.7
	c0-0.2,0-0.3,0-0.4c0.2,0,0.5,0,0.8-0.1c0.2,0,0.3-0.1,0.4-0.2c0.4,0.1,0.9-0.1,1.1-0.7c1.1-3.9,4.7-7,8.9-7.1
	c4.2-0.1,7.9,2.8,9.2,6.7c0,0.1,0.1,0.2,0.1,0.3c0.1,0.3,0.4,0.6,0.8,0.6c0.3,0,0.7,0,1,0c0,0,0,0,0,0.1c0.2,0.9,0.3,1.9,0.4,2.9
	c0,0,0,0,0,0.1c-0.1,0-0.2,0.1-0.2,0.2c-1.5,0.2-3.2-0.1-4.1,1.4c-0.4,0.7-0.3,1.4-0.3,2.2c0,1.5,0.1,2.9,0.3,4.4
	c0.2,1.8,0,4.7,1.1,6.4c1.1,1.8,3.4,1.6,5.1,1.3c0.6-0.1,0.7-0.5,0.7-1c0.1-0.1,0.1-0.2,0.1-0.3c1.4-0.2,3.4-0.3,4.1-1.7
	C489.3,487.1,488.7,484.4,488.6,482.8z M456.8,490.4c-0.6-0.3-0.7-1.5-0.8-2.1c-0.2-1.1-0.3-2.2-0.4-3.3c-0.1-0.9-0.2-1.8-0.3-2.7
	c-0.1-1.6,1-2.5,2.5-2.1c0,0,0,0,0,0c0.2,3.5,0.3,6.8,0.2,10.2C457.7,490.5,457,490.6,456.8,490.4z M470.1,463.2
	c-4.9,0.1-9.1,3.5-10.6,8.1c-0.1,0-0.2,0-0.3,0c-0.6,0.1-1.1,0-1.7-0.2c-0.4-3.2,2.4-6.3,4.8-8.1c2.3-1.7,5.2-2.7,8-2.8
	c5.9-0.1,12.7,3.7,13,10.1c-0.8,0.3-1.6,0.4-2.4,0.4C479.3,466.4,475,463.1,470.1,463.2z M486.8,486.9c-0.1,1.2-1.3,1.3-2.3,1.4
	c-0.1-3.4-0.5-6.8-1.1-10.2c1.3,0.1,2.4,0,3,1.6c0.4,1.2,0.3,2.8,0.3,4C486.8,484.8,487,485.9,486.8,486.9z"/>
<path id="Headphones_1_" class="st8" d="M71.6,57.5c-0.1-1.7-0.1-4-1.1-5.5c-1-1.3-2.5-1-4-1.1c0.1-0.1,0.2-0.3,0.2-0.6
	c-0.1-1.1-0.2-2.1-0.4-3.2c0.4-0.1,0.7-0.2,1.1-0.4c0.3-0.1,0.5-0.3,0.6-0.6c0.2-0.1,0.4-0.4,0.4-0.8c-0.1-7.9-8.4-12.8-15.6-12.3
	c-6.3,0.4-15.6,6.2-14,13.7c0.1,0.5,0.5,0.7,0.9,0.7c0.1,0.1,0.3,0.2,0.4,0.3c0.1,0,0.1,0,0.2,0c0,0,0,0.1,0,0.1
	c-0.3,1.6-0.4,3.2-0.3,4.8c0,0.1,0,0.1,0,0.2c-1.1,0-2.2,0.2-3,1.2c-1.1,1.4-0.5,3.7-0.3,5.4c0.2,1.9,0.1,4.3,0.8,6.1
	c0.6,1.7,2.2,1.5,3.7,1.6c0,0,0,0,0,0.1c0,0.6,0.4,0.9,0.9,0.9c0.2,0.1,0.4,0.2,0.6,0.3c1.7,0.1,3.8,0,4.5-1.9
	c0.4-0.9,0.2-1.9,0.2-2.8c0-1.3,0-2.7,0-4c0-1.9,0.2-4.7-1.1-6.3c-1-1.3-2.8-1.7-4.4-1.2c0,0,0,0,0,0c0-1.2,0-2.5,0.2-3.7
	c0-0.2,0-0.3,0-0.4c0.2,0,0.5,0,0.8-0.1c0.2,0,0.3-0.1,0.4-0.2c0.4,0.1,0.9-0.1,1.1-0.7c1.1-3.9,4.7-7,8.9-7.1
	c4.2-0.1,7.9,2.8,9.2,6.7c0,0.1,0.1,0.2,0.1,0.3c0.1,0.3,0.4,0.6,0.8,0.6c0.3,0,0.7,0,1,0c0,0,0,0,0,0.1c0.2,0.9,0.3,1.9,0.4,2.9
	c0,0,0,0,0,0.1c-0.1,0-0.2,0.1-0.2,0.2c-1.5,0.2-3.2-0.1-4.1,1.4c-0.4,0.7-0.3,1.4-0.3,2.2c0,1.5,0.1,2.9,0.3,4.4
	c0.2,1.8,0,4.7,1.1,6.4c1.1,1.8,3.4,1.6,5.1,1.3c0.6-0.1,0.7-0.5,0.7-1c0.1-0.1,0.1-0.2,0.1-0.3c1.4-0.2,3.4-0.3,4.1-1.7
	C72.3,61.8,71.7,59.1,71.6,57.5z M39.8,65.2c-0.6-0.3-0.7-1.5-0.8-2.1c-0.2-1.1-0.3-2.2-0.4-3.3c-0.1-0.9-0.2-1.8-0.3-2.7
	c-0.1-1.6,1-2.5,2.5-2.1c0,0,0,0,0,0c0.2,3.5,0.3,6.8,0.2,10.2C40.7,65.2,40,65.3,39.8,65.2z M53.1,38c-4.9,0.1-9.1,3.5-10.6,8.1
	c-0.1,0-0.2,0-0.3,0c-0.6,0.1-1.1,0-1.7-0.2c-0.4-3.2,2.4-6.3,4.8-8.1c2.3-1.7,5.2-2.7,8-2.8c5.9-0.1,12.7,3.7,13,10.1
	c-0.8,0.3-1.6,0.4-2.4,0.4C62.3,41.1,58,37.9,53.1,38z M69.8,61.6c-0.1,1.2-1.3,1.3-2.3,1.4c-0.1-3.4-0.5-6.8-1.1-10.2
	c1.3,0.1,2.4,0,3,1.6c0.4,1.2,0.3,2.8,0.3,4C69.8,59.5,70,60.6,69.8,61.6z"/>
<path id="Paper_1_" class="st8" d="M564.7,524.4c0-0.1,0-0.3-0.1-0.4c0-0.1,0-0.2-0.1-0.3c-0.7-1.4-1.8-2.4-2.8-3.5
	c-1.2-1.3-2.5-2.5-3.7-3.7c-0.2-0.2-0.4-0.3-0.7-0.3c-0.1-0.1-0.3-0.2-0.6-0.2c-6.4,0.1-12.8,0-19.2-0.2c-0.6,0-0.9,0.4-0.9,0.8
	c-0.1,0.1-0.2,0.3-0.2,0.5c0,11.3-0.1,22.5-0.1,33.8c0,0.5,0.3,0.8,0.7,0.9c0.1,0.1,0.3,0.2,0.6,0.2c8.6,0.1,17.2,0.2,25.9,0.3
	c0.3,0,0.5-0.1,0.7-0.3c0.4-0.1,0.7-0.4,0.7-0.9C565,542.2,565,533.3,564.7,524.4z M560,521.2c0.6,0.6,1.3,1.3,1.9,2
	c-1.3,0-2.7,0-4,0c0-1.4,0-2.7,0-4.1C558.6,519.7,559.3,520.4,560,521.2z M555.9,517.9c0,2,0,4-0.1,6c0,0.1,0,0.3,0.1,0.4
	c0.1,0.4,0.4,0.8,0.9,0.8c2,0,4,0,6,0c0.2,8.4,0.3,16.9,0.1,25.3c-8.2-0.1-16.4-0.2-24.6-0.3c0-10.8,0.1-21.5,0.1-32.3
	C544.3,517.9,550.1,518,555.9,517.9z"/>
<g id="Computer" class="st10">
	<path class="st1" d="M1047,437.3c-0.3-11.2-0.6-22.3-1-33.5c0-0.8-0.9-1.1-1.5-0.8c-0.2-0.2-0.4-0.3-0.7-0.3
		c-16.6,0.1-33.3,0.2-49.9,0.3c-0.5,0-0.8,0.3-0.9,0.7c-0.1,0.1-0.2,0.3-0.2,0.6c-0.2,11.2-0.2,22.5,0,33.7c0,0.2,0.1,0.4,0.2,0.5
		c0,0.5,0.3,0.9,0.9,0.9c7,0.3,14,0.4,21,0.4c0,0,0,0,0,0.1c0,0.5,0.2,1.4-0.1,1.9c-0.3,0.4-1.1,0.7-1.5,1c-1,0.7-2.1,1.4-3.2,2
		c0,0,0,0,0,0c0,0,0,0,0,0c-0.3,0.2-0.4,0.6-0.3,0.9c0.1,0.4,0.3,0.7,0.7,0.8c0.1,0,0.2,0,0.3,0c6.5-0.1,13,0.1,19.4,0
		c1.1,0,1.2-1.6,0.3-1.9c-0.1-0.1-0.1-0.2-0.3-0.2c-1-0.6-2-1.2-3-1.8c-0.4-0.2-1-0.5-1.3-0.8c-0.5-0.5-0.4-1.1-0.4-1.8
		c0-0.1,0-0.2,0-0.3c6.8-0.1,13.5-0.4,20.3-0.7c0.7,0,1-0.6,0.9-1.2C1047,437.7,1047,437.5,1047,437.3z M1044.1,404.6
		c0.3,8.8,0.5,17.7,0.8,26.5c-16.7,0.3-33.4,0.4-50.1,0.2c-0.1-8.8-0.1-17.6,0.1-26.4c16.3-0.1,32.7-0.2,49-0.2
		C1044,404.6,1044.1,404.6,1044.1,404.6z M994.8,437.5c0-1.4,0-2.8,0-4.2c16.7,0.2,33.4,0.2,50.2-0.2c0,1.4,0.1,2.7,0.1,4.1
		C1028.3,438,1011.6,438.1,994.8,437.5z M1025.1,443.5c0.6,0.4,1.1,0.8,1.7,1.1c-4.3,0-8.5-0.1-12.8-0.1c0.5-0.3,0.9-0.6,1.4-0.9
		c0.6-0.3,1.1-0.6,1.4-1.3c0.3-0.7,0.1-1.7,0.1-2.5c0,0,0,0,0-0.1c2.3,0,4.5,0,6.8-0.1c0,0.1,0,0.1,0,0.2
		C1023.6,441.4,1023.9,442.6,1025.1,443.5z"/>
	<path class="st1" d="M1020.3,434.5c-1.2,0-1.2,1.9,0,1.9S1021.4,434.5,1020.3,434.5z"/>
</g>
<path id="Paper_2_" class="st8" d="M1263.6,690.5c-0.1,0-0.3,0-0.4,0.1c-0.1,0-0.2,0-0.3,0.1c-1.4,0.7-2.4,1.8-3.5,2.8
	c-1.3,1.2-2.5,2.5-3.7,3.7c-0.2,0.2-0.3,0.4-0.3,0.7c-0.1,0.1-0.2,0.3-0.2,0.6c0.1,6.4,0,12.8-0.2,19.2c0,0.6,0.4,0.9,0.8,0.9
	c0.1,0.1,0.3,0.2,0.5,0.2c11.3,0,22.5,0.1,33.8,0.1c0.5,0,0.8-0.3,0.9-0.7c0.1-0.1,0.2-0.3,0.2-0.6c0.1-8.6,0.2-17.2,0.3-25.9
	c0-0.3-0.1-0.5-0.3-0.7c-0.1-0.4-0.4-0.7-0.9-0.7C1281.4,690.1,1272.5,690.2,1263.6,690.5z M1260.4,695.2c0.6-0.6,1.3-1.3,2-1.9
	c0,1.3,0,2.7,0,4c-1.4,0-2.7,0-4.1,0C1258.9,696.6,1259.6,695.9,1260.4,695.2z M1257.1,699.3c2,0,4,0,6,0.1c0.1,0,0.3,0,0.4-0.1
	c0.4-0.1,0.8-0.4,0.8-0.9c0-2,0-4,0-6c8.4-0.2,16.9-0.3,25.3-0.1c-0.1,8.2-0.2,16.4-0.3,24.6c-10.8,0-21.5-0.1-32.3-0.1
	C1257.1,710.9,1257.2,705.1,1257.1,699.3z"/>
<g id="Computer_1_" class="st10">
	<path class="st1" d="M703,192.3c-0.3-11.2-0.6-22.3-1-33.5c0-0.8-0.9-1.1-1.5-0.8c-0.2-0.2-0.4-0.3-0.7-0.3
		c-16.6,0.1-33.3,0.2-49.9,0.3c-0.5,0-0.8,0.3-0.9,0.7c-0.1,0.1-0.2,0.3-0.2,0.6c-0.2,11.2-0.2,22.5,0,33.7c0,0.2,0.1,0.4,0.2,0.5
		c0,0.5,0.3,0.9,0.9,0.9c7,0.3,14,0.4,21,0.4c0,0,0,0,0,0.1c0,0.5,0.2,1.4-0.1,1.9c-0.3,0.4-1.1,0.7-1.5,1c-1,0.7-2.1,1.4-3.2,2
		c0,0,0,0,0,0c0,0,0,0,0,0c-0.3,0.2-0.4,0.6-0.3,0.9c0.1,0.4,0.3,0.7,0.7,0.8c0.1,0,0.2,0,0.3,0c6.5-0.1,13,0.1,19.4,0
		c1.1,0,1.2-1.6,0.3-1.9c-0.1-0.1-0.1-0.2-0.3-0.2c-1-0.6-2-1.2-3-1.8c-0.4-0.2-1-0.5-1.3-0.8c-0.5-0.5-0.4-1.1-0.4-1.8
		c0-0.1,0-0.2,0-0.3c6.8-0.1,13.5-0.4,20.3-0.7c0.7,0,1-0.6,0.9-1.2C703,192.7,703,192.5,703,192.3z M700.1,159.6
		c0.3,8.8,0.5,17.7,0.8,26.5c-16.7,0.3-33.4,0.4-50.1,0.2c-0.1-8.8-0.1-17.6,0.1-26.4c16.3-0.1,32.7-0.2,49-0.2
		C700,159.6,700.1,159.6,700.1,159.6z M650.8,192.5c0-1.4,0-2.8,0-4.2c16.7,0.2,33.4,0.2,50.2-0.2c0,1.4,0.1,2.7,0.1,4.1
		C684.3,193,667.6,193.1,650.8,192.5z M681.1,198.5c0.6,0.4,1.1,0.8,1.7,1.1c-4.3,0-8.5-0.1-12.8-0.1c0.5-0.3,0.9-0.6,1.4-0.9
		c0.6-0.3,1.1-0.6,1.4-1.3c0.3-0.7,0.1-1.7,0.1-2.5c0,0,0,0,0-0.1c2.3,0,4.5,0,6.8-0.1c0,0.1,0,0.1,0,0.2
		C679.6,196.4,679.9,197.6,681.1,198.5z"/>
	<path class="st1" d="M676.3,189.5c-1.2,0-1.2,1.9,0,1.9S677.4,189.5,676.3,189.5z"/>
</g>
<g id="Computer_3_" class="st10">
	<path class="st1" d="M95,202.3c-0.3-11.2-0.6-22.3-1-33.5c0-0.8-0.9-1.1-1.5-0.8c-0.2-0.2-0.4-0.3-0.7-0.3
		c-16.6,0.1-33.3,0.2-49.9,0.3c-0.5,0-0.8,0.3-0.9,0.7c-0.1,0.1-0.2,0.3-0.2,0.6c-0.2,11.2-0.2,22.5,0,33.7c0,0.2,0.1,0.4,0.2,0.5
		c0,0.5,0.3,0.9,0.9,0.9c7,0.3,14,0.4,21,0.4c0,0,0,0,0,0.1c0,0.5,0.2,1.4-0.1,1.9c-0.3,0.4-1.1,0.7-1.5,1c-1,0.7-2.1,1.4-3.2,2
		c0,0,0,0,0,0c0,0,0,0,0,0c-0.3,0.2-0.4,0.6-0.3,0.9c0.1,0.4,0.3,0.7,0.7,0.8c0.1,0,0.2,0,0.3,0c6.5-0.1,13,0.1,19.4,0
		c1.1,0,1.2-1.6,0.3-1.9c-0.1-0.1-0.1-0.2-0.3-0.2c-1-0.6-2-1.2-3-1.8c-0.4-0.2-1-0.5-1.3-0.8c-0.5-0.5-0.4-1.1-0.4-1.8
		c0-0.1,0-0.2,0-0.3c6.8-0.1,13.5-0.4,20.3-0.7c0.7,0,1-0.6,0.9-1.2C95,202.7,95,202.5,95,202.3z M92.1,169.6
		c0.3,8.8,0.5,17.7,0.8,26.5c-16.7,0.3-33.4,0.4-50.1,0.2c-0.1-8.8-0.1-17.6,0.1-26.4c16.3-0.1,32.7-0.2,49-0.2
		C92,169.6,92.1,169.6,92.1,169.6z M42.8,202.5c0-1.4,0-2.8,0-4.2c16.7,0.2,33.4,0.2,50.2-0.2c0,1.4,0.1,2.7,0.1,4.1
		C76.3,203,59.6,203.1,42.8,202.5z M73.1,208.5c0.6,0.4,1.1,0.8,1.7,1.1c-4.3,0-8.5-0.1-12.8-0.1c0.5-0.3,0.9-0.6,1.4-0.9
		c0.6-0.3,1.1-0.6,1.4-1.3c0.3-0.7,0.1-1.7,0.1-2.5c0,0,0,0,0-0.1c2.3,0,4.5,0,6.8-0.1c0,0.1,0,0.1,0,0.2
		C71.6,206.4,71.9,207.6,73.1,208.5z"/>
	<path class="st1" d="M68.3,199.5c-1.2,0-1.2,1.9,0,1.9S69.4,199.5,68.3,199.5z"/>
</g>
<g id="Mouse_and_Mousepad" class="st10">
	<path class="st1" d="M825.7,416.9c-0.1-0.4-0.4-0.7-0.9-0.6c-3.2,0.2-6.4,0.8-9.4,1.8c-0.3,0.1-0.5,0.3-0.6,0.6
		c-0.1,0.2-0.1,0.4-0.1,0.6c0.4,2,0.7,4,1.1,6.1c0.3,1.5,0.4,3.3,1.1,4.7c1.2,2.4,4.1,3,6.6,2.5
		C830.9,431.1,827.5,421.6,825.7,416.9C825.7,416.9,825.7,416.9,825.7,416.9z M822.9,430.6c-1.4,0.2-3.3,0.1-4.1-1.1
		c-0.6-0.8-0.6-1.9-0.8-2.8c-0.4-2.3-0.8-4.7-1.2-7c0.9-0.3,1.8-0.5,2.7-0.7c0.3,1.4,0.7,2.9,1,4.3c0.3,1.2,2.2,0.7,1.9-0.5
		c-0.4-1.4-0.7-2.8-1-4.2c0.9-0.2,1.9-0.3,2.8-0.3C825.7,422.1,828.5,429.6,822.9,430.6z"/>
	<path class="st1" d="M833.9,428.4c-0.1-2.6-0.3-5.1-0.4-7.7c-0.1-1.8,0-3.6-0.2-5.3c-0.2-1.3-0.4-2.7-1.4-3.6c-1.2-1-2.9-0.8-4.4-1
		c-3.8-0.1-7.6,0-11.4,0c-3.4,0-7.3-0.7-10.5,0.9c-3,1.5-2.2,6.1-2.4,8.9c-0.2,4.5-0.3,8.9,0,13.4c0.2,3.2,1.8,4.2,4.9,4.5
		c4.4,0.3,9,0.2,13.4,0.1c2,0,4.1-0.1,6.1-0.1c1.5,0,3.7,0.3,5-0.6C835,436,834,430.8,833.9,428.4z M832.1,433.5
		c-0.1,1.3,0,2.4-1.5,2.8c-1.4,0.3-3.1,0.1-4.6,0.2c-1.8,0.1-3.5,0.1-5.3,0.1c-3.2,0-6.3,0-9.5,0c-1.4,0-3.4,0.2-4.8-0.3
		c-1.8-0.6-1.4-3-1.5-4.6c-0.1-3.3-0.1-6.6,0.1-10c0.1-1.7,0.2-3.3,0.2-5c0-0.6-0.1-1.7,0.2-2.3c0.5-0.9,1.8-1.5,2.8-1.6
		c1.7-0.3,3.6-0.1,5.3-0.1c1.4,0,2.8,0,4.2,0c3.2,0,6.4-0.1,9.7,0c1.3,0.1,2.9-0.2,3.6,1.3c0.5,1.1,0.5,2.7,0.5,3.9
		c0.1,3,0.2,6,0.4,8.9c0.1,1.5,0.2,3,0.2,4.5C832.1,432.1,832.1,432.8,832.1,433.5z"/>
</g>
<g id="Coffee" class="st10">
	<path class="st1" d="M305.2,184.8c-0.8-4.2-4-6.6-8-6.5c0-0.3,0-0.7-0.1-1c0-0.4-0.2-0.6-0.5-0.8c-0.5-1.3-2.3-1.7-3.5-2.1
		c-2.2-0.6-4.5-0.4-6.8-0.4c-0.9,0-1.9,0.1-2.8,0.2c0-0.8,0.5-1.7,0.8-2.6c0.3-1,0.3-1.9-0.2-2.8c-0.6-1.1-2.3-0.1-1.7,1
		c0.7,1.2-0.8,2.9-0.9,4.2c0,0.2,0,0.4,0,0.6c-0.9,0.2-1.8,0.4-2.7,0.7c-1.2,0.4-2.9,1-2.9,2.6c0,0,0,0,0,0.1
		c-0.1,0.1-0.1,0.3-0.1,0.4c0.1,4.3,0.2,8.5,0.3,12.8c0.1,3.2,1,5.3,4.2,6.4c3.3,1.1,7.2,0.6,10.5,0.1c2.8-0.4,5.9-1,6.5-4
		c0.2-0.2,0.3-0.4,0.3-0.7c0-0.3,0-0.6,0-0.9C301.9,191.8,306.1,189.7,305.2,184.8z M297.5,183.5c1.1,0,2.3,0.6,2.5,1.9
		c0.1,1.3-1.2,1.6-2.3,1.6C297.6,185.9,297.5,184.7,297.5,183.5z M282.3,176.4c0.1,0.2,0.3,0.4,0.5,0.6c0.7,0.7,1.8-0.1,1.6-0.9
		c0.9-0.1,1.7-0.1,1.9-0.1c1.2,0,2.5,0,3.7,0c0.9,0,3.1,0,3.8,0.7c0.5,0.5,0.3,0.9-0.1,1.1c-0.1-0.1-0.2-0.1-0.3-0.1
		c-4.5-0.7-9-0.6-13.6,0.2c-0.3,0.1-0.5,0.2-0.6,0.4c-0.5-0.1-0.9-0.2-0.9-0.3C278.2,177.2,280.3,176.7,282.3,176.4z M295.5,193.3
		c-0.3,2.7-6.1,2.7-8,2.8c-2.6,0.2-5.9,0.5-8-1.2c-2-1.6-1.3-5.6-1.3-7.9c-0.1-2.4-0.1-4.8-0.2-7.2c0.4,0.1,0.9,0.2,1.3,0.2
		c2.4,0.4,5,0.3,7.4,0.3c1.6,0,6.2,0.3,8.7-0.9c0.2,4.4,0.5,8.9,0.5,13.3C295.7,192.9,295.6,193.1,295.5,193.3z M297.7,190.1
		c0-0.4,0-0.8,0-1.1c2.1-0.1,4.3-1,4.2-3.5c-0.1-2.3-2.3-4-4.5-3.9c0-0.5,0-0.9-0.1-1.4c2.7,0,4.7,1.2,5.7,4
		C304.5,188.2,301.1,189.9,297.7,190.1z"/>
	<path class="st1" d="M288.5,171.5c0.3,1.2,2.1,0.7,1.9-0.5c-0.4-1.9,1.1-3.3,1.2-5.2c0.1-1.6-0.5-3.1-1.4-4.4c-0.7-1-2.4-0.1-1.7,1
		c1.3,1.9,1.3,3.4,0.3,5.4C288.4,169.1,288.3,170.2,288.5,171.5z"/>
</g>
<g id="Coffee_2_" class="st10">
	<path class="st1" d="M889.2,280.8c-0.8-4.2-4-6.6-8-6.5c0-0.3,0-0.7-0.1-1c0-0.4-0.2-0.6-0.5-0.8c-0.5-1.3-2.3-1.7-3.5-2.1
		c-2.2-0.6-4.5-0.4-6.8-0.4c-0.9,0-1.9,0.1-2.8,0.2c0-0.8,0.5-1.7,0.8-2.6c0.3-1,0.3-1.9-0.2-2.8c-0.6-1.1-2.3-0.1-1.7,1
		c0.7,1.2-0.8,2.9-0.9,4.2c0,0.2,0,0.4,0,0.6c-0.9,0.2-1.8,0.4-2.7,0.7c-1.2,0.4-2.9,1-2.9,2.6c0,0,0,0,0,0.1
		c-0.1,0.1-0.1,0.3-0.1,0.4c0.1,4.3,0.2,8.5,0.3,12.8c0.1,3.2,1,5.3,4.2,6.4c3.3,1.1,7.2,0.6,10.5,0.1c2.8-0.4,5.9-1,6.5-4
		c0.2-0.2,0.3-0.4,0.3-0.7c0-0.3,0-0.6,0-0.9C885.9,287.8,890.1,285.7,889.2,280.8z M881.5,279.5c1.1,0,2.3,0.6,2.5,1.9
		c0.1,1.3-1.2,1.6-2.3,1.6C881.6,281.9,881.5,280.7,881.5,279.5z M866.3,272.4c0.2,0.2,0.3,0.4,0.5,0.6c0.7,0.7,1.8-0.1,1.6-0.9
		c0.9-0.1,1.7-0.1,1.9-0.1c1.2,0,2.5,0,3.7,0c0.9,0,3.1,0,3.8,0.7c0.5,0.5,0.3,0.9-0.1,1.1c-0.1-0.1-0.2-0.1-0.3-0.1
		c-4.5-0.7-9-0.6-13.6,0.2c-0.3,0.1-0.5,0.2-0.6,0.4c-0.5-0.1-0.9-0.2-0.9-0.3C862.2,273.2,864.3,272.7,866.3,272.4z M879.5,289.3
		c-0.3,2.7-6.1,2.7-8,2.8c-2.6,0.2-5.9,0.5-8-1.2c-2-1.6-1.3-5.6-1.3-7.9c-0.1-2.4-0.1-4.8-0.2-7.2c0.4,0.1,0.9,0.2,1.3,0.2
		c2.4,0.4,5,0.3,7.4,0.3c1.6,0,6.2,0.3,8.7-0.9c0.2,4.4,0.5,8.9,0.5,13.3C879.7,288.9,879.6,289.1,879.5,289.3z M881.7,286.1
		c0-0.4,0-0.8,0-1.1c2.1-0.1,4.3-1,4.2-3.5c-0.1-2.3-2.3-4-4.5-3.9c0-0.5,0-0.9-0.1-1.4c2.7,0,4.7,1.2,5.7,4
		C888.5,284.2,885.1,285.9,881.7,286.1z"/>
	<path class="st1" d="M872.5,267.5c0.3,1.2,2.1,0.7,1.9-0.5c-0.4-1.9,1.1-3.3,1.2-5.2c0.1-1.6-0.5-3.1-1.4-4.4c-0.7-1-2.4-0.1-1.7,1
		c1.3,1.9,1.3,3.4,0.3,5.4C872.4,265.1,872.3,266.2,872.5,267.5z"/>
</g>
<g id="Coffee_1_" class="st10">
	<path class="st1" d="M63.2,525.8c-0.8-4.2-4-6.6-8-6.5c0-0.3,0-0.7-0.1-1c0-0.4-0.2-0.6-0.5-0.8c-0.5-1.3-2.3-1.7-3.5-2.1
		c-2.2-0.6-4.5-0.4-6.8-0.4c-0.9,0-1.9,0.1-2.8,0.2c0-0.8,0.5-1.7,0.8-2.6c0.3-1,0.3-1.9-0.2-2.8c-0.6-1.1-2.3-0.1-1.7,1
		c0.7,1.2-0.8,2.9-0.9,4.2c0,0.2,0,0.4,0,0.6c-0.9,0.2-1.8,0.4-2.7,0.7c-1.2,0.4-2.9,1-2.9,2.6c0,0,0,0,0,0.1
		c-0.1,0.1-0.1,0.3-0.1,0.4c0.1,4.3,0.2,8.5,0.3,12.8c0.1,3.2,1,5.3,4.2,6.4c3.3,1.1,7.2,0.6,10.5,0.1c2.8-0.4,5.9-1,6.5-4
		c0.2-0.2,0.3-0.4,0.3-0.7c0-0.3,0-0.6,0-0.9C59.9,532.8,64.1,530.7,63.2,525.8z M55.5,524.5c1.1,0,2.3,0.6,2.5,1.9
		c0.1,1.3-1.2,1.6-2.3,1.6C55.6,526.9,55.5,525.7,55.5,524.5z M40.3,517.4c0.2,0.2,0.3,0.4,0.5,0.6c0.7,0.7,1.8-0.1,1.6-0.9
		c0.9-0.1,1.7-0.1,1.9-0.1c1.2,0,2.5,0,3.7,0c0.9,0,3.1,0,3.8,0.7c0.5,0.5,0.3,0.9-0.1,1.1c-0.1-0.1-0.2-0.1-0.3-0.1
		c-4.5-0.7-9-0.6-13.6,0.2c-0.3,0.1-0.5,0.2-0.6,0.4c-0.5-0.1-0.9-0.2-0.9-0.3C36.2,518.2,38.3,517.7,40.3,517.4z M53.5,534.3
		c-0.3,2.7-6.1,2.7-8,2.8c-2.6,0.2-5.9,0.5-8-1.2c-2-1.6-1.3-5.6-1.3-7.9c-0.1-2.4-0.1-4.8-0.2-7.2c0.4,0.1,0.9,0.2,1.3,0.2
		c2.4,0.4,5,0.3,7.4,0.3c1.6,0,6.2,0.3,8.7-0.9c0.2,4.4,0.5,8.9,0.5,13.3C53.7,533.9,53.6,534.1,53.5,534.3z M55.7,531.1
		c0-0.4,0-0.8,0-1.1c2.1-0.1,4.3-1,4.2-3.5c-0.1-2.3-2.3-4-4.5-3.9c0-0.5,0-0.9-0.1-1.4c2.7,0,4.7,1.2,5.7,4
		C62.5,529.2,59.1,530.9,55.7,531.1z"/>
	<path class="st1" d="M46.5,512.5c0.3,1.2,2.1,0.7,1.9-0.5c-0.4-1.9,1.1-3.3,1.2-5.2c0.1-1.6-0.5-3.1-1.4-4.4c-0.7-1-2.4-0.1-1.7,1
		c1.3,1.9,1.3,3.4,0.3,5.4C46.4,510.1,46.3,511.2,46.5,512.5z"/>
</g>
<path id="Pencil" class="st8" d="M1031.1,229.7c0-0.1,0-0.1-0.1-0.2c-4.5-7.3-9.1-14.7-14.8-21.2c-0.2-0.2-0.3-0.3-0.5-0.3
	c-0.2-0.1-0.5-0.2-0.8-0.1c-2.5,1-5.5,2.4-6.8,4.9c-0.2,0.4-0.1,0.7,0.1,1c-0.1,0.2,0,0.4,0.1,0.7c4.4,6.5,8.9,13,13.5,19.3
	c0,0.1,0.1,0.1,0.1,0.1c0.1,0.2,0.2,0.3,0.4,0.4c2.5,1.4,4.9,2.6,7.5,3.8c0.6,0.4,1.5,0.2,1.5-0.7c0-2.3,0-4.6,0-7
	C1031.5,230.1,1031.4,229.9,1031.1,229.7z M1024.4,233.3c0.2-0.4,0.4-0.7,0.6-1.1c0.4,0,0.9,0,1.3,0.1c0.4,0.1,0.9,0,1.1-0.4
	c0.1-0.3,0.3-0.6,0.4-1c0.6,0.1,1.1,0.2,1.7,0.3c0,0,0,0,0,0c0,0.6,0,1.1,0,1.7c0,0,0,0,0,0c-1,0.3-1.8,1-2.3,1.9
	C1026.3,234.3,1025.3,233.8,1024.4,233.3z M1010.1,213.5c1.1-1.7,3.3-2.8,5.1-3.6c0.8,0.9,1.5,1.8,2.3,2.8c-2.1,0.9-3.9,2.1-5.4,3.7
	C1011.4,215.5,1010.7,214.5,1010.1,213.5C1010.1,213.5,1010.1,213.5,1010.1,213.5z M1013.1,218.1c1.5-1.7,3.4-2.9,5.5-3.7
	c0,0,0,0,0.1,0c3.6,4.7,6.7,9.7,9.8,14.7c-0.3-0.1-0.6-0.1-0.9-0.2c-0.3-0.1-0.6,0-0.8,0.2c-0.3,0.1-0.5,0.3-0.6,0.7
	c-0.1,0.2-0.1,0.4-0.2,0.6c-0.5,0-1,0-1.4-0.1c-0.2,0-0.4,0.1-0.5,0.2c-0.2,0.1-0.3,0.2-0.4,0.4c-0.2,0.4-0.4,0.8-0.7,1.1
	C1019.6,227.4,1016.3,222.8,1013.1,218.1z"/>
<path id="Pencil_1_" class="st8" d="M622.1,602.7c0-0.1,0-0.1-0.1-0.2c-4.5-7.3-9.1-14.7-14.8-21.2c-0.2-0.2-0.3-0.3-0.5-0.3
	c-0.2-0.1-0.5-0.2-0.8-0.1c-2.5,1-5.5,2.4-6.8,4.9c-0.2,0.4-0.1,0.7,0.1,1c-0.1,0.2,0,0.5,0.1,0.7c4.4,6.5,8.9,13,13.5,19.3
	c0,0.1,0.1,0.1,0.1,0.1c0.1,0.2,0.2,0.3,0.4,0.4c2.5,1.4,4.9,2.6,7.5,3.8c0.6,0.4,1.5,0.2,1.5-0.7c0-2.3,0-4.6,0-7
	C622.5,603.1,622.4,602.9,622.1,602.7z M615.4,606.3c0.2-0.4,0.4-0.7,0.6-1.1c0.4,0,0.9,0,1.3,0.1c0.4,0.1,0.9,0,1.1-0.4
	c0.1-0.3,0.3-0.6,0.4-1c0.6,0.1,1.1,0.2,1.7,0.3c0,0,0,0,0,0c0,0.6,0,1.1,0,1.7c0,0,0,0,0,0c-1,0.3-1.8,1-2.3,1.9
	C617.3,607.3,616.3,606.8,615.4,606.3z M601.1,586.5c1.1-1.7,3.3-2.8,5.1-3.6c0.8,0.9,1.5,1.8,2.3,2.8c-2.1,0.9-3.9,2.1-5.4,3.7
	C602.4,588.5,601.7,587.5,601.1,586.5C601.1,586.5,601.1,586.5,601.1,586.5z M604.1,591.1c1.5-1.7,3.4-2.9,5.5-3.7c0,0,0,0,0.1,0
	c3.6,4.7,6.7,9.7,9.8,14.7c-0.3-0.1-0.6-0.1-0.9-0.2c-0.3-0.1-0.6,0-0.8,0.2c-0.3,0.1-0.5,0.3-0.6,0.7c-0.1,0.2-0.1,0.4-0.2,0.6
	c-0.5,0-1,0-1.4-0.1c-0.2,0-0.4,0.1-0.5,0.2c-0.2,0.1-0.3,0.2-0.4,0.4c-0.2,0.4-0.4,0.8-0.7,1.1
	C610.6,600.4,607.3,595.8,604.1,591.1z"/>
<path id="Pencil_2_" class="st8" d="M1086.1,527.7c0-0.1,0-0.1-0.1-0.2c-4.5-7.3-9.1-14.7-14.8-21.2c-0.2-0.2-0.3-0.3-0.5-0.3
	c-0.2-0.1-0.5-0.2-0.8-0.1c-2.5,1-5.5,2.4-6.8,4.9c-0.2,0.4-0.1,0.7,0.1,1c-0.1,0.2,0,0.5,0.1,0.7c4.4,6.5,8.9,13,13.5,19.3
	c0,0.1,0.1,0.1,0.1,0.1c0.1,0.2,0.2,0.3,0.4,0.4c2.5,1.4,4.9,2.6,7.5,3.8c0.6,0.4,1.5,0.2,1.5-0.7c0-2.3,0-4.6,0-7
	C1086.5,528.1,1086.4,527.9,1086.1,527.7z M1079.4,531.3c0.2-0.4,0.4-0.7,0.6-1.1c0.4,0,0.9,0,1.3,0.1c0.4,0.1,0.9,0,1.1-0.4
	c0.1-0.3,0.3-0.6,0.4-1c0.6,0.1,1.1,0.2,1.7,0.3c0,0,0,0,0,0c0,0.6,0,1.1,0,1.7c0,0,0,0,0,0c-1,0.3-1.8,1-2.3,1.9
	C1081.3,532.3,1080.3,531.8,1079.4,531.3z M1065.1,511.5c1.1-1.7,3.3-2.8,5.1-3.6c0.8,0.9,1.5,1.8,2.3,2.8c-2.1,0.9-3.9,2.1-5.4,3.7
	C1066.4,513.5,1065.7,512.5,1065.1,511.5C1065.1,511.5,1065.1,511.5,1065.1,511.5z M1068.1,516.1c1.5-1.7,3.4-2.9,5.5-3.7
	c0,0,0,0,0.1,0c3.6,4.7,6.7,9.7,9.8,14.7c-0.3-0.1-0.6-0.1-0.9-0.2c-0.3-0.1-0.6,0-0.8,0.2c-0.3,0.1-0.5,0.3-0.6,0.7
	c-0.1,0.2-0.1,0.4-0.2,0.6c-0.5,0-1,0-1.4-0.1c-0.2,0-0.4,0.1-0.5,0.2c-0.2,0.1-0.3,0.2-0.4,0.4c-0.2,0.4-0.4,0.8-0.7,1.1
	C1074.6,525.4,1071.3,520.8,1068.1,516.1z"/>
<path id="Headphones_2_" class="st8" d="M711.6,388.5c-0.1-1.7-0.1-4-1.1-5.5c-1-1.3-2.5-1-4-1.1c0.1-0.1,0.2-0.3,0.2-0.6
	c-0.1-1.1-0.2-2.1-0.4-3.2c0.4-0.1,0.7-0.2,1.1-0.4c0.3-0.1,0.5-0.3,0.6-0.6c0.2-0.1,0.4-0.4,0.4-0.8c-0.1-7.9-8.4-12.8-15.6-12.3
	c-6.3,0.4-15.6,6.2-14,13.7c0.1,0.5,0.5,0.7,0.9,0.7c0.1,0.1,0.3,0.2,0.4,0.3c0.1,0,0.1,0,0.2,0c0,0,0,0.1,0,0.1
	c-0.3,1.6-0.4,3.2-0.3,4.8c0,0.1,0,0.1,0,0.2c-1.1,0-2.2,0.2-3,1.2c-1.1,1.4-0.5,3.7-0.3,5.4c0.2,1.9,0.1,4.3,0.8,6.1
	c0.6,1.7,2.2,1.5,3.7,1.6c0,0,0,0,0,0.1c0,0.6,0.4,0.9,0.9,0.9c0.2,0.1,0.4,0.2,0.6,0.3c1.7,0.1,3.8,0,4.5-1.9
	c0.4-0.9,0.2-1.9,0.2-2.8c0-1.3,0-2.7,0-4c0-1.9,0.2-4.7-1.1-6.3c-1-1.3-2.8-1.7-4.4-1.2c0,0,0,0,0,0c0-1.2,0-2.5,0.2-3.7
	c0-0.2,0-0.3,0-0.4c0.2,0,0.5,0,0.8-0.1c0.2,0,0.3-0.1,0.4-0.2c0.4,0.1,0.9-0.1,1.1-0.7c1.1-3.9,4.7-7,8.9-7.1
	c4.2-0.1,7.9,2.8,9.2,6.7c0,0.1,0.1,0.2,0.1,0.3c0.1,0.3,0.4,0.6,0.8,0.6c0.3,0,0.7,0,1,0c0,0,0,0,0,0.1c0.2,0.9,0.3,1.9,0.4,2.9
	c0,0,0,0,0,0.1c-0.1,0-0.2,0.1-0.2,0.2c-1.5,0.2-3.2-0.1-4.1,1.4c-0.4,0.7-0.3,1.4-0.3,2.2c0,1.5,0.1,2.9,0.3,4.4
	c0.2,1.8,0,4.7,1.1,6.4c1.1,1.8,3.4,1.6,5.1,1.3c0.6-0.1,0.7-0.5,0.7-1c0.1-0.1,0.1-0.2,0.1-0.3c1.4-0.2,3.4-0.3,4.1-1.7
	C712.3,392.8,711.7,390.1,711.6,388.5z M679.8,396.2c-0.6-0.3-0.7-1.5-0.8-2.1c-0.2-1.1-0.3-2.2-0.4-3.3c-0.1-0.9-0.2-1.8-0.3-2.7
	c-0.1-1.6,1-2.5,2.5-2.1c0,0,0,0,0,0c0.2,3.5,0.3,6.8,0.2,10.2C680.7,396.2,680,396.3,679.8,396.2z M693.1,369
	c-4.9,0.1-9.1,3.5-10.6,8.1c-0.1,0-0.2,0-0.3,0c-0.6,0.1-1.1,0-1.7-0.2c-0.4-3.2,2.4-6.3,4.8-8.1c2.3-1.7,5.2-2.7,8-2.8
	c5.9-0.1,12.7,3.7,13,10.1c-0.8,0.3-1.6,0.4-2.4,0.4C702.3,372.1,698,368.9,693.1,369z M709.8,392.6c-0.1,1.2-1.3,1.3-2.3,1.4
	c-0.1-3.4-0.5-6.8-1.1-10.2c1.3,0.1,2.4,0,3,1.6c0.4,1.2,0.3,2.8,0.3,4C709.8,390.5,710,391.6,709.8,392.6z"/>
<path id="Headphones_3_" class="st8" d="M494.6,370.5c-0.1-1.7-0.1-4-1.1-5.5c-1-1.3-2.5-1-4-1.1c0.1-0.1,0.2-0.3,0.2-0.6
	c-0.1-1.1-0.2-2.1-0.4-3.2c0.4-0.1,0.7-0.2,1.1-0.4c0.3-0.1,0.5-0.3,0.6-0.6c0.2-0.1,0.4-0.4,0.4-0.8c-0.1-7.9-8.4-12.8-15.6-12.3
	c-6.3,0.4-15.6,6.2-14,13.7c0.1,0.5,0.5,0.7,0.9,0.7c0.1,0.1,0.3,0.2,0.4,0.3c0.1,0,0.1,0,0.2,0c0,0,0,0.1,0,0.1
	c-0.3,1.6-0.4,3.2-0.3,4.8c0,0.1,0,0.1,0,0.2c-1.1,0-2.2,0.2-3,1.2c-1.1,1.4-0.5,3.7-0.3,5.4c0.2,1.9,0.1,4.3,0.8,6.1
	c0.6,1.7,2.2,1.5,3.7,1.6c0,0,0,0,0,0.1c0,0.6,0.4,0.9,0.9,0.9c0.2,0.1,0.4,0.2,0.6,0.3c1.7,0.1,3.8,0,4.5-1.9
	c0.4-0.9,0.2-1.9,0.2-2.8c0-1.3,0-2.7,0-4c0-1.9,0.2-4.7-1.1-6.3c-1-1.3-2.8-1.7-4.4-1.2c0,0,0,0,0,0c0-1.2,0-2.5,0.2-3.7
	c0-0.2,0-0.3,0-0.4c0.2,0,0.5,0,0.8-0.1c0.2,0,0.3-0.1,0.4-0.2c0.4,0.1,0.9-0.1,1.1-0.7c1.1-3.9,4.7-7,8.9-7.1
	c4.2-0.1,7.9,2.8,9.2,6.7c0,0.1,0.1,0.2,0.1,0.3c0.1,0.3,0.4,0.6,0.8,0.6c0.3,0,0.7,0,1,0c0,0,0,0,0,0.1c0.2,0.9,0.3,1.9,0.4,2.9
	c0,0,0,0,0,0.1c-0.1,0-0.2,0.1-0.2,0.2c-1.5,0.2-3.2-0.1-4.1,1.4c-0.4,0.7-0.3,1.4-0.3,2.2c0,1.5,0.1,2.9,0.3,4.4
	c0.2,1.8,0,4.7,1.1,6.4c1.1,1.8,3.4,1.6,5.1,1.3c0.6-0.1,0.7-0.5,0.7-1c0.1-0.1,0.1-0.2,0.1-0.3c1.4-0.2,3.4-0.3,4.1-1.7
	C495.3,374.8,494.7,372.1,494.6,370.5z M462.8,378.2c-0.6-0.3-0.7-1.5-0.8-2.1c-0.2-1.1-0.3-2.2-0.4-3.3c-0.1-0.9-0.2-1.8-0.3-2.7
	c-0.1-1.6,1-2.5,2.5-2.1c0,0,0,0,0,0c0.2,3.5,0.3,6.8,0.2,10.2C463.7,378.2,463,378.3,462.8,378.2z M476.1,351
	c-4.9,0.1-9.1,3.5-10.6,8.1c-0.1,0-0.2,0-0.3,0c-0.6,0.1-1.1,0-1.7-0.2c-0.4-3.2,2.4-6.3,4.8-8.1c2.3-1.7,5.2-2.7,8-2.8
	c5.9-0.1,12.7,3.7,13,10.1c-0.8,0.3-1.6,0.4-2.4,0.4C485.3,354.1,481,350.9,476.1,351z M492.8,374.6c-0.1,1.2-1.3,1.3-2.3,1.4
	c-0.1-3.4-0.5-6.8-1.1-10.2c1.3,0.1,2.4,0,3,1.6c0.4,1.2,0.3,2.8,0.3,4C492.8,372.5,493,373.6,492.8,374.6z"/>
<path id="Headphones_4_" class="st8" d="M431.6,130.5c-0.1-1.7-0.1-4-1.1-5.5c-1-1.3-2.5-1-4-1.1c0.1-0.1,0.2-0.3,0.2-0.6
	c-0.1-1.1-0.2-2.1-0.4-3.2c0.4-0.1,0.7-0.2,1.1-0.4c0.3-0.1,0.5-0.3,0.6-0.6c0.2-0.1,0.4-0.4,0.4-0.8c-0.1-7.9-8.4-12.8-15.6-12.3
	c-6.3,0.4-15.6,6.2-14,13.7c0.1,0.5,0.5,0.7,0.9,0.7c0.1,0.1,0.3,0.2,0.4,0.3c0.1,0,0.1,0,0.2,0c0,0,0,0.1,0,0.1
	c-0.3,1.6-0.4,3.2-0.3,4.8c0,0.1,0,0.1,0,0.2c-1.1,0-2.2,0.2-3,1.2c-1.1,1.4-0.5,3.7-0.3,5.4c0.2,1.9,0.1,4.3,0.8,6.1
	c0.6,1.7,2.2,1.5,3.7,1.6c0,0,0,0,0,0.1c0,0.6,0.4,0.9,0.9,0.9c0.2,0.1,0.4,0.2,0.6,0.3c1.7,0.1,3.8,0,4.5-1.9
	c0.4-0.9,0.2-1.9,0.2-2.8c0-1.3,0-2.7,0-4c0-1.9,0.2-4.7-1.1-6.3c-1-1.3-2.8-1.7-4.4-1.2c0,0,0,0,0,0c0-1.2,0-2.5,0.2-3.7
	c0-0.2,0-0.3,0-0.4c0.2,0,0.5,0,0.8-0.1c0.2,0,0.3-0.1,0.4-0.2c0.4,0.1,0.9-0.1,1.1-0.7c1.1-3.9,4.7-7,8.9-7.1
	c4.2-0.1,7.9,2.8,9.2,6.7c0,0.1,0.1,0.2,0.1,0.3c0.1,0.3,0.4,0.6,0.8,0.6c0.3,0,0.7,0,1,0c0,0,0,0,0,0.1c0.2,0.9,0.3,1.9,0.4,2.9
	c0,0,0,0,0,0.1c-0.1,0-0.2,0.1-0.2,0.2c-1.5,0.2-3.2-0.1-4.1,1.4c-0.4,0.7-0.3,1.4-0.3,2.2c0,1.5,0.1,2.9,0.3,4.4
	c0.2,1.8,0,4.7,1.1,6.4c1.1,1.8,3.4,1.6,5.1,1.3c0.6-0.1,0.7-0.5,0.7-1c0.1-0.1,0.1-0.2,0.1-0.3c1.4-0.2,3.4-0.3,4.1-1.7
	C432.3,134.8,431.7,132.1,431.6,130.5z M399.8,138.2c-0.6-0.3-0.7-1.5-0.8-2.1c-0.2-1.1-0.3-2.2-0.4-3.3c-0.1-0.9-0.2-1.8-0.3-2.7
	c-0.1-1.6,1-2.5,2.5-2.1c0,0,0,0,0,0c0.2,3.5,0.3,6.8,0.2,10.2C400.7,138.2,400,138.3,399.8,138.2z M413.1,111
	c-4.9,0.1-9.1,3.5-10.6,8.1c-0.1,0-0.2,0-0.3,0c-0.6,0.1-1.1,0-1.7-0.2c-0.4-3.2,2.4-6.3,4.8-8.1c2.3-1.7,5.2-2.7,8-2.8
	c5.9-0.1,12.7,3.7,13,10.1c-0.8,0.3-1.6,0.4-2.4,0.4C422.3,114.1,418,110.9,413.1,111z M429.8,134.6c-0.1,1.2-1.3,1.3-2.3,1.4
	c-0.1-3.4-0.5-6.8-1.1-10.2c1.3,0.1,2.4,0,3,1.6c0.4,1.2,0.3,2.8,0.3,4C429.8,132.5,430,133.6,429.8,134.6z"/>
</svg>
