<?xml version="1.0" encoding="utf-8"?>
<!-- Generator: Adobe Illustrator 22.0.1, SVG Export Plug-In . SVG Version: 6.00 Build 0)  -->
<svg version="1.1" id="Layer_1" xmlns="http://www.w3.org/2000/svg" xmlns:xlink="http://www.w3.org/1999/xlink" x="0px" y="0px"
	 viewBox="0 0 300 300" style="enable-background:new 0 0 300 300;" xml:space="preserve">
<style type="text/css">
	.st0{fill:#E5E5E5;}
	.st1{fill:#2F2E41;}
	.st2{fill:#FFFFFF;}
	.st3{fill:#3F3D56;}
	.st4{fill:#28A745;}
	.st5{fill:#FFC80F;}
</style>
<ellipse class="st0" cx="56.5" cy="171.7" rx="50.8" ry="5.9"/>
<ellipse class="st0" cx="217.1" cy="248.6" rx="56.2" ry="8.3"/>
<ellipse class="st0" cx="261.2" cy="260.6" rx="15.9" ry="2.4"/>
<ellipse transform="matrix(0.9331 -0.3596 0.3596 0.9331 -46.5199 79.8982)" class="st1" cx="191.5" cy="165" rx="6.4" ry="20.5"/>
<circle class="st1" cx="229.4" cy="195.8" r="41"/>
<rect x="235.8" y="228" transform="matrix(1 -2.799989e-03 2.799989e-03 1 -0.6686 0.6786)" class="st1" width="12.5" height="22.3"/>
<rect x="210.9" y="228" transform="matrix(1 -2.801098e-03 2.801098e-03 1 -0.6691 0.6091)" class="st1" width="12.5" height="22.3"/>
<ellipse transform="matrix(1 -2.801064e-03 2.801064e-03 1 -0.7009 0.6674)" class="st1" cx="237.9" cy="250.6" rx="10.4" ry="3.9"/>
<ellipse transform="matrix(1 -2.801064e-03 2.801064e-03 1 -0.6997 0.5976)" class="st1" cx="213" cy="250.1" rx="10.4" ry="3.9"/>
<circle class="st2" cx="228.4" cy="185.4" r="14"/>
<circle class="st3" cx="228.4" cy="185.4" r="4.7"/>
<path class="st4" d="M269.1,157.6c3.3-14.8-7.4-29.8-23.7-33.4s-32.3,5.5-35.6,20.3s7.6,20.3,24,23.9S265.8,172.4,269.1,157.6z"/>
<ellipse transform="matrix(0.9023 -0.4311 0.4311 0.9023 -49.2395 136.0427)" class="st1" cx="275.6" cy="176.7" rx="20.5" ry="6.4"/>
<path class="st2" d="M249.6,210.6c0,4-10.3,12-21.8,12s-22.2-11.2-22.3-15.2s10.8,0.7,22.2,0.7C239.3,208,249.6,206.5,249.6,210.6z"
	/>
<ellipse transform="matrix(0.3596 -0.9331 0.9331 0.3596 -41.0891 155.1563)" class="st1" cx="92.5" cy="107.5" rx="15.7" ry="4.9"/>
<circle class="st1" cx="63.4" cy="131.2" r="31.5"/>
<rect x="45.2" y="159.6" transform="matrix(2.799989e-03 -1 1 2.799989e-03 -110.8345 217.6516)" class="st1" width="17.1" height="9.6"/>
<rect x="64.3" y="159.7" transform="matrix(2.801098e-03 -1 1 2.801098e-03 -91.832 236.8154)" class="st1" width="17.1" height="9.6"/>
<ellipse transform="matrix(2.801064e-03 -1 1 2.801064e-03 -116.4562 229.5549)" class="st1" cx="56.9" cy="173.2" rx="3" ry="8"/>
<ellipse transform="matrix(2.801064e-03 -1 1 2.801064e-03 -97.0541 248.3223)" class="st1" cx="76" cy="172.8" rx="3" ry="8"/>
<circle class="st2" cx="64.2" cy="123.2" r="10.7"/>
<circle class="st3" cx="64.2" cy="123.2" r="3.6"/>
<path class="st5" d="M60,110.1c12.6-2.8,20.9-6.9,18.4-18.3c-2.5-11.4-14.7-18.4-27.3-15.6C38.6,79,30.4,90.5,32.9,101.8
	C35.4,113.2,47.5,112.9,60,110.1z"/>
<ellipse transform="matrix(0.4311 -0.9023 0.9023 0.4311 -89.1954 91.5201)" class="st1" cx="28" cy="116.5" rx="4.9" ry="15.7"/>
<path class="st2" d="M64.6,140.5c8.8,0,17.1-3.6,17-0.5s-8.3,11.7-17.1,11.7c-8.8,0-16.7-6.1-16.7-9.2
	C47.9,139.4,55.8,140.5,64.6,140.5z"/>
<g>
	<path class="st1" d="M77.8,79.6l-0.4-1c0,0,1.1-0.4,3.1-1l0.3,1C78.9,79.2,77.8,79.6,77.8,79.6z"/>
	<path class="st1" d="M209.7,116.3c-1.4-1.6-2.8-3.2-4.3-4.7l0.8-0.7c1.4,1.5,2.9,3.1,4.3,4.7L209.7,116.3z M199.8,106.1
		c-1.5-1.4-3.1-2.8-4.7-4.2l0.7-0.8c1.6,1.4,3.2,2.8,4.8,4.2L199.8,106.1z M188.9,97c-1.7-1.3-3.4-2.5-5.2-3.6l0.6-0.9
		c1.8,1.2,3.5,2.4,5.2,3.7L188.9,97z M177,89.2c-1.8-1-3.7-2-5.6-3l0.5-1c1.9,0.9,3.8,2,5.6,3L177,89.2z M164.3,82.9
		c-1.9-0.8-3.9-1.6-5.9-2.3l0.4-1c2,0.7,4,1.5,5.9,2.3L164.3,82.9z M150.9,78.2c-2-0.6-4.1-1.1-6.1-1.6l0.2-1c2.1,0.5,4.1,1,6.2,1.6
		L150.9,78.2z M88.5,76.6l-0.2-1c2-0.4,4.1-0.8,6.2-1.2l0.2,1.1C92.6,75.8,90.5,76.2,88.5,76.6z M137.1,75.2
		c-2.1-0.3-4.2-0.6-6.3-0.8l0.1-1.1c2.1,0.2,4.2,0.5,6.3,0.8L137.1,75.2z M102.5,74.4l-0.1-1.1c2.1-0.2,4.2-0.4,6.3-0.5l0.1,1.1
		C106.7,74,104.6,74.2,102.5,74.4z M123,73.7c-2-0.1-4-0.1-6.1-0.1l-0.3,0l0-1.1l0.3,0c2,0,4.1,0,6.1,0.1L123,73.7z"/>
	<path class="st1" d="M216.7,124.9c-0.6-0.9-1.3-1.7-2-2.5l0.8-0.7c0.7,0.8,1.3,1.7,2,2.6L216.7,124.9z"/>
</g>
<path id="Message_Bubble" class="st1" d="M76.3,63.4c-1.4-2-4.5-3-6.8-3.2c-2.6-0.1-5.3,0.2-7.6,1.5c-1.9,1.2-3.6,3.3-3.4,5.7
	c0.3,2.4,2.3,4,4.5,4.6c2.8,0.8,5.8,0.6,8.6-0.1c0.9,0.3,1.4,1.2,1.3,2.1c0,0.3,0.1,0.4,0.3,0.5c0.1,0.2,0.4,0.4,0.7,0.2
	c1.7-1,2.5-2.8,2.3-4.8C78,68.4,77.7,65.3,76.3,63.4z M73.9,73.7c0-1.1-0.7-2.1-1.8-2.6C72,71,71.9,70.9,71.7,71
	c-2.4,0.7-4.9,0.9-7.4,0.4c-2.2-0.4-4.6-1.7-4.8-4.2c-0.1-2.2,1.7-4.1,3.6-4.9c2-0.9,4.3-1.2,6.4-1.1c2,0.2,4.3,1,5.7,2.4
	c1.5,1.5,1.9,4.4,0.2,5.9c-0.1,0-0.2,0.1-0.2,0.2c0,0.1,0,0.2,0,0.3C75.4,71.4,75,72.8,73.9,73.7z"/>
<path id="Message_Bubble_1_" class="st1" d="M191.6,141.3c-0.2,1.9,0.5,3.8,2.3,4.8c0.3,0.2,0.6,0,0.7-0.2c0.2-0.1,0.3-0.3,0.3-0.5
	c-0.2-0.9,0.4-1.8,1.3-2.1c2.8,0.7,5.8,0.9,8.6,0.1c2.2-0.6,4.2-2.2,4.5-4.6c0.2-2.4-1.4-4.5-3.4-5.7c-2.2-1.3-5-1.7-7.6-1.5
	c-2.3,0.2-5.4,1.2-6.8,3.2C190.1,136.5,189.8,139.6,191.6,141.3z M192.6,141.2c0-0.1,0-0.2,0-0.3c0-0.1-0.1-0.2-0.2-0.2
	c-1.6-1.4-1.2-4.4,0.2-5.9c1.4-1.4,3.7-2.3,5.7-2.4c2.2-0.1,4.5,0.1,6.4,1.1c1.8,0.9,3.7,2.7,3.6,4.9c-0.1,2.5-2.6,3.8-4.8,4.2
	c-2.4,0.5-5,0.3-7.4-0.4c-0.2-0.1-0.4,0-0.5,0.1c-1.1,0.4-1.8,1.4-1.8,2.6C192.8,144,192.4,142.6,192.6,141.2z"/>
</svg>
