<svg xmlns="http://www.w3.org/2000/svg" xmlns:xlink="http://www.w3.org/1999/xlink" width="245" height="180" viewBox="0 0 245 180">
  <defs>
    <clipPath id="clip-custom_1">
      <rect width="245" height="180"/>
    </clipPath>
  </defs>
  <g id="custom_1" data-name="custom – 1" clip-path="url(#clip-custom_1)">
    <rect width="245" height="180" fill="#fff"/>
    <g id="undraw_good_team_m7uu_1_" data-name="undraw_good_team_m7uu (1)" transform="translate(3.633 1.821)">
      <line id="Line_1" data-name="Line 1" x2="30.63" transform="translate(82.948 54.301)" fill="none" stroke="#3f3d56" stroke-miterlimit="10" stroke-width="2"/>
      <ellipse id="Ellipse_60" data-name="Ellipse 60" cx="8.402" cy="2.638" rx="8.402" ry="2.638" transform="translate(38.53 94.071) rotate(-69.082)" fill="#2f2e41"/>
      <path id="Path_18" data-name="Path 18" d="M835.4,327.2c3.332,24.8-1.205,49.626-24.285,59.294a45.308,45.308,0,0,1-59.294-24.285c-9.667-23.08,13.142-36.889,24.285-59.294C798.738,257.417,825.056,250.185,835.4,327.2Z" transform="translate(-599.012 -218.867)" fill="#f2f2f2"/>
      <ellipse id="Ellipse_61" data-name="Ellipse 61" cx="36.161" cy="4.919" rx="36.161" ry="4.919" transform="translate(158.682 164.065)" fill="#3f3d56"/>
      <rect id="Rectangle_17" data-name="Rectangle 17" width="5.105" height="9.147" transform="translate(172.545 161.385) rotate(-105.453)" fill="#2f2e41"/>
      <ellipse id="Ellipse_62" data-name="Ellipse 62" cx="1.595" cy="4.254" rx="1.595" ry="4.254" transform="translate(167.99 154.478) rotate(-15.453)" fill="#2f2e41"/>
      <ellipse id="Ellipse_63" data-name="Ellipse 63" cx="8.402" cy="2.638" rx="8.402" ry="2.638" transform="matrix(0.134, -0.991, 0.991, 0.134, 192.656, 147.158)" fill="#2f2e41"/>
      <circle id="Ellipse_64" data-name="Ellipse 64" cx="16.804" cy="16.804" r="16.804" transform="translate(177.95 138.112)" fill="#2f2e41"/>
      <rect id="Rectangle_18" data-name="Rectangle 18" width="5.105" height="9.147" transform="translate(172.545 158.407) rotate(-105.453)" fill="#2f2e41"/>
      <ellipse id="Ellipse_65" data-name="Ellipse 65" cx="1.595" cy="4.254" rx="1.595" ry="4.254" transform="translate(167.99 151.5) rotate(-15.453)" fill="#2f2e41"/>
      <circle id="Ellipse_66" data-name="Ellipse 66" cx="5.743" cy="5.743" r="5.743" transform="translate(193.423 139.547)" fill="#fff"/>
      <circle id="Ellipse_67" data-name="Ellipse 67" cx="1.914" cy="1.914" r="1.914" transform="translate(199.089 140.839)" fill="#3f3d56"/>
      <path id="Path_19" data-name="Path 19" d="M1018.676,724.26c6.219-.311,10.981-6.128,10.638-12.991s-5.663-12.176-11.881-11.865-7.195,5.193-6.851,12.056S1012.457,724.571,1018.676,724.26Z" transform="translate(-804.516 -557.796)" fill="#ffc80f"/>
      <path id="Path_20" data-name="Path 20" d="M910.026,700.3a3.829,3.829,0,0,1-.618-7.633c2.108-.171,2.682,1.5,2.853,3.61S912.134,700.127,910.026,700.3Z" transform="translate(-722.14 -552.491)" fill="#fff"/>
      <path id="Path_21" data-name="Path 21" d="M49.464,323.914h94.123l14.593,7.109L181.43,342.35l15.2-28.463H239.65" transform="translate(-38.943 -247.12)" fill="none" stroke="#3f3d56" stroke-miterlimit="10" stroke-width="2"/>
      <circle id="Ellipse_68" data-name="Ellipse 68" cx="2.911" cy="2.911" r="2.911" transform="translate(44.483 76.861)" fill="#ffc80f"/>
      <circle id="Ellipse_69" data-name="Ellipse 69" cx="2.911" cy="2.911" r="2.911" transform="translate(71.653 73.883)" fill="#ffc80f"/>
      <circle id="Ellipse_70" data-name="Ellipse 70" cx="2.911" cy="2.911" r="2.911" transform="translate(116.288 80.998)" fill="#ffc80f"/>
      <circle id="Ellipse_71" data-name="Ellipse 71" cx="2.911" cy="2.911" r="2.911" transform="translate(179.037 63.856)" fill="#ffc80f"/>
      <circle id="Ellipse_72" data-name="Ellipse 72" cx="2.911" cy="2.911" r="2.911" transform="translate(148.633 75.177)" fill="#ffc80f"/>
      <circle id="Ellipse_73" data-name="Ellipse 73" cx="3.139" cy="3.139" r="3.139" transform="translate(87.811 120.54)" fill="none" stroke="#3f3d56" stroke-miterlimit="10" stroke-width="2"/>
      <ellipse id="Ellipse_74" data-name="Ellipse 74" cx="36.161" cy="4.919" rx="36.161" ry="4.919" transform="translate(0 167.256)" fill="#3f3d56"/>
      <circle id="Ellipse_75" data-name="Ellipse 75" cx="16.804" cy="16.804" r="16.804" transform="translate(17.401 131.335)" fill="#2f2e41"/>
      <rect id="Rectangle_19" data-name="Rectangle 19" width="5.105" height="9.147" transform="translate(26.547 161.327)" fill="#2f2e41"/>
      <rect id="Rectangle_20" data-name="Rectangle 20" width="5.105" height="9.147" transform="translate(36.757 161.327)" fill="#2f2e41"/>
      <ellipse id="Ellipse_76" data-name="Ellipse 76" cx="4.254" cy="1.595" rx="4.254" ry="1.595" transform="translate(26.547 168.984)" fill="#2f2e41"/>
      <ellipse id="Ellipse_77" data-name="Ellipse 77" cx="4.254" cy="1.595" rx="4.254" ry="1.595" transform="translate(36.757 168.772)" fill="#2f2e41"/>
      <circle id="Ellipse_78" data-name="Ellipse 78" cx="5.743" cy="5.743" r="5.743" transform="translate(28.887 138.142)" fill="#fff"/>
      <circle id="Ellipse_79" data-name="Ellipse 79" cx="1.914" cy="1.914" r="1.914" transform="translate(32.716 141.97)" fill="#3f3d56"/>
      <path id="Path_22" data-name="Path 22" d="M125.3,604.7c-1.357-6.077,2.98-12.217,9.688-13.715s13.244,2.214,14.6,8.291-3.088,8.318-9.8,9.815S126.652,610.775,125.3,604.7Z" transform="translate(-107.391 -472.186)" fill="#ffc80f"/>
      <circle id="Ellipse_80" data-name="Ellipse 80" cx="16.804" cy="16.804" r="16.804" transform="translate(11.658 83.05)" fill="#2f2e41"/>
      <rect id="Rectangle_21" data-name="Rectangle 21" width="5.105" height="9.147" transform="translate(20.804 113.042)" fill="#2f2e41"/>
      <rect id="Rectangle_22" data-name="Rectangle 22" width="5.105" height="9.147" transform="translate(31.014 113.042)" fill="#2f2e41"/>
      <ellipse id="Ellipse_81" data-name="Ellipse 81" cx="4.254" cy="1.595" rx="4.254" ry="1.595" transform="translate(20.804 120.699)" fill="#2f2e41"/>
      <ellipse id="Ellipse_82" data-name="Ellipse 82" cx="4.254" cy="1.595" rx="4.254" ry="1.595" transform="translate(31.014 120.487)" fill="#2f2e41"/>
      <circle id="Ellipse_83" data-name="Ellipse 83" cx="5.743" cy="5.743" r="5.743" transform="translate(23.144 89.856)" fill="#fff"/>
      <circle id="Ellipse_84" data-name="Ellipse 84" cx="1.914" cy="1.914" r="1.914" transform="translate(26.973 93.685)" fill="#3f3d56"/>
      <path id="Path_23" data-name="Path 23" d="M98.3,377.7c-1.357-6.077,2.98-12.217,9.688-13.714s13.244,2.214,14.6,8.291-3.088,8.318-9.8,9.815S99.652,383.775,98.3,377.7Z" transform="translate(-86.134 -293.472)" fill="#ffc80f"/>
      <ellipse id="Ellipse_85" data-name="Ellipse 85" cx="2.638" cy="8.402" rx="2.638" ry="8.402" transform="translate(0.813 90.839) rotate(-64.626)" fill="#2f2e41"/>
      <path id="Path_24" data-name="Path 24" d="M137.043,524.108c0,1.645,4.235,4.892,8.934,4.892s9.1-4.63,9.1-6.275-4.406.319-9.1.319S137.043,522.463,137.043,524.108Z" transform="translate(-116.836 -418.192)" fill="#fff"/>
      <rect id="Rectangle_23" data-name="Rectangle 23" width="26.829" height="13.648" transform="translate(177.714 120.119)" fill="#ffc80f"/>
      <rect id="Rectangle_24" data-name="Rectangle 24" width="26.829" height="13.648" transform="translate(175.614 122.336)" fill="none" stroke="#3f3d56" stroke-miterlimit="10" stroke-width="2"/>
      <rect id="Rectangle_25" data-name="Rectangle 25" width="7.658" height="7.658" transform="translate(48.201 42.329)" fill="#ff6584"/>
      <rect id="Rectangle_26" data-name="Rectangle 26" width="7.658" height="7.658" transform="translate(46.286 39.777)" fill="none" stroke="#3f3d56" stroke-miterlimit="10" stroke-width="2"/>
      <circle id="Ellipse_86" data-name="Ellipse 86" cx="16.804" cy="16.804" r="16.804" transform="translate(175.922 23.498)" fill="#2f2e41"/>
      <rect id="Rectangle_27" data-name="Rectangle 27" width="5.105" height="9.147" transform="translate(204.24 60.914) rotate(169.739)" fill="#2f2e41"/>
      <rect id="Rectangle_28" data-name="Rectangle 28" width="5.105" height="9.147" transform="translate(194.193 62.733) rotate(169.739)" fill="#2f2e41"/>
      <ellipse id="Ellipse_87" data-name="Ellipse 87" cx="4.254" cy="1.595" rx="4.254" ry="1.595" transform="translate(186.528 65.853) rotate(-40.261)" fill="#2f2e41"/>
      <ellipse id="Ellipse_88" data-name="Ellipse 88" cx="4.254" cy="1.595" rx="4.254" ry="1.595" transform="translate(196.366 64.072) rotate(-40.261)" fill="#2f2e41"/>
      <circle id="Ellipse_89" data-name="Ellipse 89" cx="5.743" cy="5.743" r="5.743" transform="translate(185.807 30.449)" fill="#fff"/>
      <circle id="Ellipse_90" data-name="Ellipse 90" cx="1.914" cy="1.914" r="1.914" transform="translate(187.275 32.219)" fill="#3f3d56"/>
      <path id="Path_25" data-name="Path 25" d="M918.347,93.641c.253-6.221-5.109-11.49-11.976-11.769s-12.638,4.538-12.891,10.759,4.521,7.635,11.387,7.914S918.094,99.862,918.347,93.641Z" transform="translate(-712.364 -71.62)" fill="#ffc80f"/>
      <ellipse id="Ellipse_91" data-name="Ellipse 91" cx="2.638" cy="8.402" rx="2.638" ry="8.402" transform="translate(168.431 37.935) rotate(-77.09)" fill="#2f2e41"/>
      <ellipse id="Ellipse_92" data-name="Ellipse 92" cx="2.638" cy="8.402" rx="2.638" ry="8.402" transform="translate(201.416 43.421) rotate(-77.09)" fill="#2f2e41"/>
      <path id="Path_26" data-name="Path 26" d="M941.7,246.932a3.829,3.829,0,0,1-7.535,1.364c-.377-2.081,1.232-2.817,3.313-3.194S941.324,244.851,941.7,246.932Z" transform="translate(-744.359 -200.008)" fill="#fff"/>
      <line id="Line_2" data-name="Line 2" x2="19.357" y2="14.89" transform="translate(151.578 21.058)" fill="none" stroke="#3f3d56" stroke-miterlimit="10" stroke-width="2"/>
      <circle id="Ellipse_93" data-name="Ellipse 93" cx="14.464" cy="14.464" r="14.464" transform="translate(127.967)" fill="#ff6584"/>
      <ellipse id="Ellipse_94" data-name="Ellipse 94" cx="8.402" cy="2.638" rx="8.402" ry="2.638" transform="matrix(0.134, -0.991, 0.991, 0.134, 186.349, 151.151)" fill="#2f2e41"/>
      <circle id="Ellipse_95" data-name="Ellipse 95" cx="2.911" cy="2.911" r="2.911" transform="translate(11.726 164.284)" fill="#ffc80f"/>
      <rect id="Rectangle_29" data-name="Rectangle 29" width="7.658" height="7.658" transform="translate(54.582 163.787)" fill="#ff6584"/>
      <circle id="Ellipse_96" data-name="Ellipse 96" cx="2.911" cy="2.911" r="2.911" transform="translate(51.715 165.986)" fill="#ffc80f"/>
      <circle id="Ellipse_97" data-name="Ellipse 97" cx="2.911" cy="2.911" r="2.911" transform="translate(95.352 51.335)" fill="#ffc80f"/>
      <circle id="Ellipse_98" data-name="Ellipse 98" cx="1.39" cy="1.39" r="1.39" transform="translate(153.403 143.094)" fill="#ff6584"/>
      <line id="Line_3" data-name="Line 3" y1="15.828" transform="translate(161.604 151.729)" fill="#3f3d56" stroke="#3f3d56" stroke-miterlimit="10" stroke-width="2"/>
      <circle id="Ellipse_99" data-name="Ellipse 99" cx="2.238" cy="2.238" r="2.238" transform="translate(159.366 149.491)" fill="#3f3d56"/>
      <path id="Path_27" data-name="Path 27" d="M776.337,770.158s-.32-6.877-6.875-6.078" transform="translate(-614.733 -608.674)" fill="#3f3d56"/>
    </g>
  </g>
</svg>
